<svg width="168" height="168" viewBox="0 0 168 168" fill="none" xmlns="http://www.w3.org/2000/svg">
<rect x="152" y="96" width="8" height="8" fill="#ECAA5E"/>
<rect x="144" y="88" width="8" height="8" fill="#ECAA5E"/>
<rect x="16" y="8" width="8" height="8" fill="#853F1E"/>
<rect x="24" width="8" height="8" fill="#853F1E"/>
<rect x="32" y="8" width="8" height="8" fill="#853F1E"/>
<rect x="24" y="16" width="8" height="8" fill="#C67691"/>
<rect x="24" y="24" width="8" height="8" fill="#F1DD98"/>
<rect x="72" y="32" width="8" height="8" fill="#F1DD98"/>
<rect x="80" y="32" width="8" height="8" fill="#F1DD98"/>
<rect x="80" y="40" width="8" height="8" fill="#F1DD98"/>
<rect x="80" y="24" width="8" height="8" fill="#C67691"/>
<rect x="64" y="72" width="8" height="8" fill="#C67691"/>
<rect x="16" y="72" width="8" height="8" fill="#C67691"/>
<rect x="72" y="72" width="8" height="8" fill="#C67691"/>
<rect x="24" y="72" width="8" height="8" fill="#C67691"/>
<rect x="24" y="64" width="8" height="8" fill="#2F240E"/>
<rect y="72" width="8" height="8" fill="#2F240E"/>
<rect x="96" y="80" width="8" height="8" fill="#2F240E"/>
<rect x="104" y="88" width="8" height="8" fill="#2F240E"/>
<rect x="112" y="96" width="8" height="8" fill="#2F240E"/>
<rect x="112" y="104" width="8" height="8" fill="#2F240E"/>
<rect x="120" y="112" width="8" height="8" fill="#2F240E"/>
<rect x="128" y="120" width="8" height="8" fill="#2F240E"/>
<rect x="128" y="128" width="8" height="8" fill="#2F240E"/>
<rect x="8" y="80" width="8" height="8" fill="#2F240E"/>
<rect x="16" y="88" width="8" height="8" fill="#2F240E"/>
<rect x="24" y="96" width="8" height="8" fill="#2F240E"/>
<rect x="24" y="104" width="8" height="8" fill="#2F240E"/>
<rect x="32" y="120" width="8" height="8" fill="#2F240E"/>
<rect x="32" y="136" width="8" height="8" fill="#2F240E"/>
<rect x="24" y="112" width="8" height="8" fill="#2F240E"/>
<rect x="32" y="128" width="8" height="8" fill="#2F240E"/>
<rect x="32" y="144" width="8" height="8" fill="#2F240E"/>
<rect x="32" y="152" width="8" height="8" fill="#2F240E"/>
<rect x="40" y="160" width="8" height="8" fill="#2F240E"/>
<rect x="48" y="160" width="8" height="8" fill="#2F240E"/>
<rect x="48" y="152" width="8" height="8" fill="#2F240E"/>
<rect x="48" y="144" width="8" height="8" fill="#2F240E"/>
<rect x="56" y="160" width="8" height="8" fill="#2F240E"/>
<rect x="64" y="160" width="8" height="8" fill="#2F240E"/>
<rect x="72" y="160" width="8" height="8" fill="#2F240E"/>
<rect x="80" y="160" width="8" height="8" fill="#2F240E"/>
<rect x="88" y="160" width="8" height="8" fill="#2F240E"/>
<rect x="96" y="160" width="8" height="8" fill="#2F240E"/>
<rect x="104" y="160" width="8" height="8" fill="#2F240E"/>
<rect x="112" y="160" width="8" height="8" fill="#2F240E"/>
<rect x="120" y="152" width="8" height="8" fill="#2F240E"/>
<rect x="32" y="96" width="8" height="8" fill="#922623"/>
<rect x="40" y="96" width="8" height="8" fill="#922623"/>
<rect x="48" y="96" width="8" height="8" fill="#922623"/>
<rect x="56" y="96" width="8" height="8" fill="#922623"/>
<rect x="64" y="96" width="8" height="8" fill="#922623"/>
<rect x="72" y="96" width="8" height="8" fill="#922623"/>
<rect x="80" y="96" width="8" height="8" fill="#922623"/>
<rect x="96" y="88" width="8" height="8" fill="#922623"/>
<rect x="88" y="88" width="8" height="8" fill="#922623"/>
<rect x="56" y="64" width="8" height="8" fill="#2F240E"/>
<rect x="24" y="56" width="8" height="8" fill="#2F240E"/>
<rect x="56" y="56" width="8" height="8" fill="#2F240E"/>
<rect x="40" y="16" width="8" height="8" fill="#853F1E"/>
<rect x="48" y="24" width="8" height="8" fill="#853F1E"/>
<rect x="32" y="24" width="8" height="8" fill="#925A1F"/>
<rect x="32" y="16" width="8" height="8" fill="#E49A41"/>
<rect width="8" height="8" transform="matrix(-1 0 0 1 80 16)" fill="#E49A41"/>
<rect width="8" height="8" transform="matrix(-1 0 0 1 80 24)" fill="#E49A41"/>
<rect width="8" height="8" transform="matrix(-1 0 0 1 72 24)" fill="#E49A41"/>
<rect width="8" height="8" transform="matrix(-1 0 0 1 72 32)" fill="#E49A41"/>
<rect width="8" height="8" transform="matrix(-1 0 0 1 72 40)" fill="#E49A41"/>
<rect width="8" height="8" transform="matrix(-1 0 0 1 80 40)" fill="#E49A41"/>
<rect width="8" height="8" transform="matrix(-1 0 0 1 88 48)" fill="#E49A41"/>
<rect width="8" height="8" transform="matrix(-1 0 0 1 88 56)" fill="#E49A41"/>
<rect width="8" height="8" transform="matrix(-1 0 0 1 88 64)" fill="#E49A41"/>
<rect width="8" height="8" transform="matrix(-1 0 0 1 80 48)" fill="#E49A41"/>
<rect width="8" height="8" transform="matrix(-1 0 0 1 80 56)" fill="#E49A41"/>
<rect width="8" height="8" transform="matrix(-1 0 0 1 80 64)" fill="#E49A41"/>
<rect width="8" height="8" transform="matrix(-1 0 0 1 72 48)" fill="#E49A41"/>
<rect width="8" height="8" transform="matrix(-1 0 0 1 72 56)" fill="#E49A41"/>
<rect width="8" height="8" transform="matrix(-1 0 0 1 72 64)" fill="#E49A41"/>
<rect width="8" height="8" transform="matrix(-1 0 0 1 64 32)" fill="#E49A41"/>
<rect width="8" height="8" transform="matrix(-1 0 0 1 56 32)" fill="#E49A41"/>
<rect width="8" height="8" transform="matrix(-1 0 0 1 48 32)" fill="#E49A41"/>
<rect width="8" height="8" transform="matrix(-1 0 0 1 40 32)" fill="#E49A41"/>
<rect width="8" height="8" transform="matrix(-1 0 0 1 32 40)" fill="#E49A41"/>
<rect width="8" height="8" transform="matrix(-1 0 0 1 24 56)" fill="#E49A41"/>
<rect width="8" height="8" transform="matrix(-1 0 0 1 32 48)" fill="#E49A41"/>
<rect width="8" height="8" transform="matrix(-1 0 0 1 24 64)" fill="#E49A41"/>
<rect width="8" height="8" transform="matrix(-1 0 0 1 16 72)" fill="#E49A41"/>
<rect width="8" height="8" transform="matrix(-1 0 0 1 24 80)" fill="#E49A41"/>
<rect width="8" height="8" transform="matrix(-1 0 0 1 32 88)" fill="#E49A41"/>
<rect width="8" height="8" transform="matrix(-1 0 0 1 40 40)" fill="#E49A41"/>
<rect width="8" height="8" transform="matrix(-1 0 0 1 56 40)" fill="#E49A41"/>
<rect width="8" height="8" transform="matrix(-1 0 0 1 64 40)" fill="#E49A41"/>
<rect width="8" height="8" transform="matrix(-1 0 0 1 64 48)" fill="#E49A41"/>
<rect width="8" height="8" transform="matrix(-1 0 0 1 40 48)" fill="#EFBF41"/>
<rect width="8" height="8" transform="matrix(-1 0 0 1 40 56)" fill="#F1DD98"/>
<rect width="8" height="8" transform="matrix(-1 0 0 1 40 64)" fill="#F1DD98"/>
<rect width="8" height="8" transform="matrix(-1 0 0 1 40 72)" fill="#F1DD98"/>
<rect width="8" height="8" transform="matrix(-1 0 0 1 40 80)" fill="#B6863C"/>
<rect width="8" height="8" transform="matrix(-1 0 0 1 48 40)" fill="#EFBF41"/>
<rect width="8" height="8" transform="matrix(-1 0 0 1 48 48)" fill="#F1DD98"/>
<rect width="8" height="8" transform="matrix(-1 0 0 1 48 56)" fill="#F1DD98"/>
<rect width="8" height="8" transform="matrix(-1 0 0 1 48 64)" fill="#F1DD98"/>
<rect width="8" height="8" transform="matrix(-1 0 0 1 48 72)" fill="#B6863C"/>
<rect width="8" height="8" transform="matrix(-1 0 0 1 56 48)" fill="#EFBF41"/>
<rect width="8" height="8" transform="matrix(-1 0 0 1 56 56)" fill="#F1DD98"/>
<rect width="8" height="8" transform="matrix(-1 0 0 1 56 64)" fill="#F1DD98"/>
<rect width="8" height="8" transform="matrix(-1 0 0 1 56 72)" fill="#F1DD98"/>
<rect width="8" height="8" transform="matrix(-1 0 0 1 32 80)" fill="#F1DD98"/>
<rect width="8" height="8" transform="matrix(-1 0 0 1 48 80)" fill="#F1DD98"/>
<rect width="8" height="8" transform="matrix(-1 0 0 1 64 80)" fill="#F1DD98"/>
<rect width="8" height="8" transform="matrix(-1 0 0 1 56 88)" fill="#F1DD98"/>
<rect width="8" height="8" transform="matrix(-1 0 0 1 56 104)" fill="#F1DD98"/>
<rect width="8" height="8" transform="matrix(-1 0 0 1 56 120)" fill="#F1DD98"/>
<rect width="8" height="8" transform="matrix(-1 0 0 1 72 112)" fill="#F1DD98"/>
<rect width="8" height="8" transform="matrix(-1 0 0 1 48 88)" fill="#F1DD98"/>
<rect width="8" height="8" transform="matrix(-1 0 0 1 48 104)" fill="#F1DD98"/>
<rect width="8" height="8" transform="matrix(-1 0 0 1 48 120)" fill="#F1DD98"/>
<rect width="8" height="8" transform="matrix(-1 0 0 1 64 112)" fill="#F1DD98"/>
<rect width="8" height="8" transform="matrix(-1 0 0 1 40 88)" fill="#F1DD98"/>
<rect width="8" height="8" transform="matrix(-1 0 0 1 40 104)" fill="#F1DD98"/>
<rect width="8" height="8" transform="matrix(-1 0 0 1 40 120)" fill="#F1DD98"/>
<rect width="8" height="8" transform="matrix(-1 0 0 1 56 112)" fill="#F1DD98"/>
<rect width="8" height="8" transform="matrix(-1 0 0 1 80 80)" fill="#F1DD98"/>
<rect width="8" height="8" transform="matrix(-1 0 0 1 80 88)" fill="#E49A41"/>
<rect width="8" height="8" transform="matrix(-1 0 0 1 88 72)" fill="#F1DD98"/>
<rect width="8" height="8" transform="matrix(-1 0 0 1 88 80)" fill="#F1DD98"/>
<rect width="8" height="8" transform="matrix(-1 0 0 1 88 88)" fill="#E49A41"/>
<rect width="8" height="8" transform="matrix(-1 0 0 1 72 88)" fill="#F1DD98"/>
<rect width="8" height="8" transform="matrix(-1 0 0 1 72 104)" fill="#F1DD98"/>
<rect width="8" height="8" transform="matrix(-1 0 0 1 72 120)" fill="#F1DD98"/>
<rect width="8" height="8" transform="matrix(-1 0 0 1 72 80)" fill="#F1DD98"/>
<rect width="8" height="8" transform="matrix(-1 0 0 1 64 88)" fill="#F1DD98"/>
<rect width="8" height="8" transform="matrix(-1 0 0 1 64 104)" fill="#F1DD98"/>
<rect width="8" height="8" transform="matrix(-1 0 0 1 64 120)" fill="#F1DD98"/>
<rect width="8" height="8" transform="matrix(-1 0 0 1 72 152)" fill="#F1DD98"/>
<rect width="8" height="8" transform="matrix(-1 0 0 1 64 152)" fill="#F1DD98"/>
<rect width="8" height="8" transform="matrix(-1 0 0 1 72 144)" fill="#F1DD98"/>
<rect width="8" height="8" transform="matrix(-1 0 0 1 64 144)" fill="#F1DD98"/>
<rect width="8" height="8" transform="matrix(-1 0 0 1 72 136)" fill="#F1DD98"/>
<rect width="8" height="8" transform="matrix(-1 0 0 1 80 136)" fill="#F1DD98"/>
<rect width="8" height="8" transform="matrix(-1 0 0 1 64 136)" fill="#F1DD98"/>
<rect width="8" height="8" transform="matrix(-1 0 0 1 72 128)" fill="#F1DD98"/>
<rect width="8" height="8" transform="matrix(-1 0 0 1 80 128)" fill="#F1DD98"/>
<rect width="8" height="8" transform="matrix(-1 0 0 1 80 120)" fill="#F1DD98"/>
<rect width="8" height="8" transform="matrix(-1 0 0 1 64 128)" fill="#F1DD98"/>
<rect width="8" height="8" transform="matrix(-1 0 0 1 56 128)" fill="#F1DD98"/>
<rect width="8" height="8" transform="matrix(-1 0 0 1 48 136)" fill="#F1DD98"/>
<rect width="8" height="8" transform="matrix(-1 0 0 1 48 144)" fill="#F1DD98"/>
<rect width="8" height="8" transform="matrix(-1 0 0 1 48 152)" fill="#F1DD98"/>
<rect width="8" height="8" transform="matrix(-1 0 0 1 64 72)" fill="#F1DD98"/>
<rect width="8" height="8" transform="matrix(-1 0 0 1 56 80)" fill="#B6863C"/>
<rect width="8" height="8" transform="matrix(-1 0 0 1 88 16)" fill="#E49A41"/>
<rect width="8" height="8" transform="matrix(-1 0 0 1 96 16)" fill="#E49A41"/>
<rect width="8" height="8" transform="matrix(-1 0 0 1 96 24)" fill="#E49A41"/>
<rect width="8" height="8" transform="matrix(-1 0 0 1 96 32)" fill="#E49A41"/>
<rect width="8" height="8" transform="matrix(-1 0 0 1 96 40)" fill="#E49A41"/>
<rect width="8" height="8" transform="matrix(-1 0 0 1 96 48)" fill="#E49A41"/>
<rect width="8" height="8" transform="matrix(-1 0 0 1 96 56)" fill="#E49A41"/>
<rect width="8" height="8" transform="matrix(-1 0 0 1 104 56)" fill="#E49A41"/>
<rect width="8" height="8" transform="matrix(-1 0 0 1 112 64)" fill="#E49A41"/>
<rect width="8" height="8" transform="matrix(-1 0 0 1 104 64)" fill="#E49A41"/>
<rect width="8" height="8" transform="matrix(-1 0 0 1 96 64)" fill="#E49A41"/>
<rect width="8" height="8" transform="matrix(-1 0 0 1 104 72)" fill="#E49A41"/>
<rect width="8" height="8" transform="matrix(-1 0 0 1 96 72)" fill="#E49A41"/>
<rect width="8" height="8" transform="matrix(-1 0 0 1 96 80)" fill="#E49A41"/>
<rect width="8" height="8" transform="matrix(-1 0 0 1 96 96)" fill="#E49A41"/>
<rect width="8" height="8" transform="matrix(-1 0 0 1 80 112)" fill="#E49A41"/>
<rect width="8" height="8" transform="matrix(-1 0 0 1 88 104)" fill="#E49A41"/>
<rect width="8" height="8" transform="matrix(-1 0 0 1 80 104)" fill="#E49A41"/>
<rect width="8" height="8" transform="matrix(-1 0 0 1 88 120)" fill="#E49A41"/>
<rect width="8" height="8" transform="matrix(-1 0 0 1 96 128)" fill="#E49A41"/>
<rect width="8" height="8" transform="matrix(-1 0 0 1 104 136)" fill="#E49A41"/>
<rect width="8" height="8" transform="matrix(-1 0 0 1 104 144)" fill="#E49A41"/>
<rect width="8" height="8" transform="matrix(-1 0 0 1 88 144)" fill="#E49A41"/>
<rect width="8" height="8" transform="matrix(-1 0 0 1 88 152)" fill="#E49A41"/>
<rect width="8" height="8" transform="matrix(-1 0 0 1 88 112)" fill="#E49A41"/>
<rect width="8" height="8" transform="matrix(-1 0 0 1 96 104)" fill="#E49A41"/>
<rect width="8" height="8" transform="matrix(-1 0 0 1 96 120)" fill="#E49A41"/>
<rect width="8" height="8" transform="matrix(-1 0 0 1 104 128)" fill="#E49A41"/>
<rect width="8" height="8" transform="matrix(-1 0 0 1 152 96)" fill="#E49A41"/>
<rect width="8" height="8" transform="matrix(-1 0 0 1 152 104)" fill="#E49A41"/>
<rect width="8" height="8" transform="matrix(-1 0 0 1 160 104)" fill="#E49A41"/>
<rect width="8" height="8" transform="matrix(-1 0 0 1 152 112)" fill="#E49A41"/>
<rect width="8" height="8" transform="matrix(-1 0 0 1 160 112)" fill="#E49A41"/>
<rect width="8" height="8" transform="matrix(-1 0 0 1 152 120)" fill="#E49A41"/>
<rect width="8" height="8" transform="matrix(-1 0 0 1 152 128)" fill="#AE6B50"/>
<rect width="8" height="8" transform="matrix(-1 0 0 1 144 128)" fill="#AE6B50"/>
<rect width="8" height="8" transform="matrix(-1 0 0 1 144 120)" fill="#AE6B50"/>
<rect width="8" height="8" transform="matrix(-1 0 0 1 144 136)" fill="#AE6B50"/>
<rect width="8" height="8" transform="matrix(-1 0 0 1 112 136)" fill="#E49A41"/>
<rect width="8" height="8" transform="matrix(-1 0 0 1 96 136)" fill="#E49A41"/>
<rect width="8" height="8" transform="matrix(-1 0 0 1 112 144)" fill="#E49A41"/>
<rect width="8" height="8" transform="matrix(-1 0 0 1 112 152)" fill="#E49A41"/>
<rect width="8" height="8" transform="matrix(-1 0 0 1 104 152)" fill="#E49A41"/>
<rect width="8" height="8" transform="matrix(-1 0 0 1 96 144)" fill="#E49A41"/>
<rect width="8" height="8" transform="matrix(-1 0 0 1 96 112)" fill="#E49A41"/>
<rect width="8" height="8" transform="matrix(-1 0 0 1 104 104)" fill="#E49A41"/>
<rect width="8" height="8" transform="matrix(-1 0 0 1 104 120)" fill="#E49A41"/>
<rect width="8" height="8" transform="matrix(-1 0 0 1 112 128)" fill="#E49A41"/>
<rect width="8" height="8" transform="matrix(-1 0 0 1 120 136)" fill="#E49A41"/>
<rect width="8" height="8" transform="matrix(-1 0 0 1 120 144)" fill="#E49A41"/>
<rect width="8" height="8" transform="matrix(-1 0 0 1 120 152)" fill="#E49A41"/>
<rect width="8" height="8" transform="matrix(-1 0 0 1 104 112)" fill="#E49A41"/>
<rect width="8" height="8" transform="matrix(-1 0 0 1 112 104)" fill="#E49A41"/>
<rect width="8" height="8" transform="matrix(-1 0 0 1 112 120)" fill="#E49A41"/>
<rect width="8" height="8" transform="matrix(-1 0 0 1 120 128)" fill="#E49A41"/>
<rect width="8" height="8" transform="matrix(-1 0 0 1 128 136)" fill="#E49A41"/>
<rect width="8" height="8" transform="matrix(-1 0 0 1 128 144)" fill="#E49A41"/>
<rect width="8" height="8" transform="matrix(-1 0 0 1 128 128)" fill="#E49A41"/>
<rect width="8" height="8" transform="matrix(-1 0 0 1 120 120)" fill="#E49A41"/>
<rect x="24" y="8" width="8" height="8" fill="#E49A41"/>
<rect width="8" height="8" transform="matrix(-1 0 0 1 88 8)" fill="#E49A41"/>
<rect x="40" y="24" width="8" height="8" fill="#925A1F"/>
<rect x="24" y="32" width="8" height="8" fill="#925A1F"/>
<rect x="56" y="24" width="8" height="8" fill="#853F1E"/>
<rect x="64" y="16" width="8" height="8" fill="#853F1E"/>
<rect x="72" y="8" width="8" height="8" fill="#853F1E"/>
<rect x="80" width="8" height="8" fill="#853F1E"/>
<rect x="88" y="8" width="8" height="8" fill="#853F1E"/>
<rect x="96" y="16" width="8" height="8" fill="#853F1E"/>
<rect x="96" y="24" width="8" height="8" fill="#853F1E"/>
<rect x="96" y="32" width="8" height="8" fill="#853F1E"/>
<rect x="136" y="96" width="8" height="8" fill="#853F1E"/>
<rect x="136" y="88" width="8" height="8" fill="#853F1E"/>
<rect x="128" y="80" width="8" height="8" fill="#853F1E"/>
<rect x="128" y="72" width="8" height="8" fill="#853F1E"/>
<rect width="8" height="8" transform="matrix(-1 0 0 1 144 72)" fill="#F1DD98"/>
<rect width="8" height="8" transform="matrix(-1 0 0 1 144 80)" fill="#F1DD98"/>
<rect width="8" height="8" transform="matrix(-1 0 0 1 160 80)" fill="#F1DD98"/>
<rect width="8" height="8" transform="matrix(-1 0 0 1 152 72)" fill="#F1DD98"/>
<rect width="8" height="8" transform="matrix(-1 0 0 1 152 80)" fill="#F1DD98"/>
<rect width="8" height="8" transform="matrix(-1 0 0 1 160 88)" fill="#F1DD98"/>
<rect x="136" y="64" width="8" height="8" fill="#853F1E"/>
<rect x="144" y="64" width="8" height="8" fill="#853F1E"/>
<rect x="152" y="72" width="8" height="8" fill="#853F1E"/>
<rect x="160" y="80" width="8" height="8" fill="#853F1E"/>
<rect x="160" y="88" width="8" height="8" fill="#2F240E"/>
<rect x="160" y="96" width="8" height="8" fill="#2F240E"/>
<rect x="160" y="104" width="8" height="8" fill="#2F240E"/>
<rect x="152" y="120" width="8" height="8" fill="#2F240E"/>
<rect x="160" y="112" width="8" height="8" fill="#2F240E"/>
<rect x="152" y="128" width="8" height="8" fill="#2F240E"/>
<rect x="144" y="136" width="8" height="8" fill="#2F240E"/>
<rect x="136" y="144" width="8" height="8" fill="#2F240E"/>
<rect x="96" y="40" width="8" height="8" fill="#853F1E"/>
<rect x="136" y="104" width="8" height="8" fill="#853F1E"/>
<rect x="128" y="136" width="8" height="8" fill="#853F1E"/>
<rect x="96" y="48" width="8" height="8" fill="#853F1E"/>
<rect x="136" y="112" width="8" height="8" fill="#853F1E"/>
<rect x="128" y="144" width="8" height="8" fill="#853F1E"/>
<rect x="104" y="56" width="8" height="8" fill="#853F1E"/>
<rect x="112" y="64" width="8" height="8" fill="#853F1E"/>
<rect x="104" y="72" width="8" height="8" fill="#853F1E"/>
<rect x="96" y="96" width="8" height="8" fill="#853F1E"/>
<rect x="104" y="112" width="8" height="8" fill="#853F1E"/>
<rect x="72" y="152" width="8" height="8" fill="#853F1E"/>
<rect x="80" y="136" width="8" height="8" fill="#ECAA5E"/>
<rect x="88" y="152" width="8" height="8" fill="#ECAA5E"/>
<rect x="72" y="144" width="8" height="8" fill="#853F1E"/>
<rect x="80" y="128" width="8" height="8" fill="#ECAA5E"/>
<rect x="48" y="136" width="8" height="8" fill="#853F1E"/>
<rect x="40" y="128" width="8" height="8" fill="#853F1E"/>
<rect x="32" y="112" width="8" height="8" fill="#F1BA65"/>
<rect x="40" y="112" width="8" height="8" fill="#F1BA65"/>
<rect x="104" y="96" width="8" height="8" fill="#853F1E"/>
<rect x="112" y="112" width="8" height="8" fill="#853F1E"/>
<rect x="120" y="120" width="8" height="8" fill="#853F1E"/>
<rect x="16" y="16" width="8" height="8" fill="#853F1E"/>
<rect x="16" y="24" width="8" height="8" fill="#853F1E"/>
<rect x="16" y="32" width="8" height="8" fill="#853F1E"/>
<rect x="16" y="40" width="8" height="8" fill="#853F1E"/>
<rect x="8" y="56" width="8" height="8" fill="#853F1E"/>
<rect x="16" y="48" width="8" height="8" fill="#853F1E"/>
<rect x="8" y="64" width="8" height="8" fill="#853F1E"/>
</svg>
