<svg width="286" height="286" viewBox="0 0 286 286" fill="none" xmlns="http://www.w3.org/2000/svg">
<rect x="51" y="158" width="8" height="8" fill="#853F1E"/>
<rect x="59" y="150" width="8" height="8" fill="#853F1E"/>
<rect x="67" y="158" width="8" height="8" fill="#853F1E"/>
<rect x="59" y="166" width="8" height="8" fill="#C67691"/>
<rect x="59" y="174" width="8" height="8" fill="#F1DD98"/>
<rect x="107" y="182" width="8" height="8" fill="#F1DD98"/>
<rect x="115" y="182" width="8" height="8" fill="#F1DD98"/>
<rect x="115" y="190" width="8" height="8" fill="#F1DD98"/>
<rect x="115" y="174" width="8" height="8" fill="#C67691"/>
<rect x="99" y="222" width="8" height="8" fill="#C67691"/>
<rect x="51" y="222" width="8" height="8" fill="#C67691"/>
<rect x="107" y="222" width="8" height="8" fill="#C67691"/>
<rect x="59" y="222" width="8" height="8" fill="#C67691"/>
<rect x="59" y="214" width="8" height="8" fill="#2F240E"/>
<rect x="35" y="222" width="8" height="8" fill="#2F240E"/>
<rect x="131" y="230" width="8" height="8" fill="#2F240E"/>
<rect x="43" y="230" width="8" height="8" fill="#2F240E"/>
<rect x="51" y="238" width="8" height="8" fill="#2F240E"/>
<rect x="67" y="246" width="8" height="8" fill="#922623"/>
<rect x="75" y="246" width="8" height="8" fill="#922623"/>
<rect x="83" y="246" width="8" height="8" fill="#922623"/>
<rect x="91" y="246" width="8" height="8" fill="#922623"/>
<rect x="99" y="246" width="8" height="8" fill="#922623"/>
<rect x="107" y="246" width="8" height="8" fill="#922623"/>
<rect x="115" y="246" width="8" height="8" fill="#922623"/>
<rect x="131" y="238" width="8" height="8" fill="#922623"/>
<rect x="123" y="238" width="8" height="8" fill="#922623"/>
<rect x="91" y="214" width="8" height="8" fill="#2F240E"/>
<rect x="59" y="206" width="8" height="8" fill="#2F240E"/>
<rect x="91" y="206" width="8" height="8" fill="#2F240E"/>
<rect x="75" y="166" width="8" height="8" fill="#853F1E"/>
<rect x="83" y="174" width="8" height="8" fill="#853F1E"/>
<rect x="67" y="174" width="8" height="8" fill="#925A1F"/>
<rect x="67" y="166" width="8" height="8" fill="#E49A41"/>
<rect width="8" height="8" transform="matrix(-1 0 0 1 115 166)" fill="#E49A41"/>
<rect width="8" height="8" transform="matrix(-1 0 0 1 115 174)" fill="#E49A41"/>
<rect width="8" height="8" transform="matrix(-1 0 0 1 107 174)" fill="#E49A41"/>
<rect width="8" height="8" transform="matrix(-1 0 0 1 107 182)" fill="#E49A41"/>
<rect width="8" height="8" transform="matrix(-1 0 0 1 107 190)" fill="#E49A41"/>
<rect width="8" height="8" transform="matrix(-1 0 0 1 115 190)" fill="#E49A41"/>
<rect width="8" height="8" transform="matrix(-1 0 0 1 123 198)" fill="#E49A41"/>
<rect width="8" height="8" transform="matrix(-1 0 0 1 123 206)" fill="#E49A41"/>
<rect width="8" height="8" transform="matrix(-1 0 0 1 123 214)" fill="#E49A41"/>
<rect width="8" height="8" transform="matrix(-1 0 0 1 115 198)" fill="#E49A41"/>
<rect width="8" height="8" transform="matrix(-1 0 0 1 115 206)" fill="#E49A41"/>
<rect width="8" height="8" transform="matrix(-1 0 0 1 115 214)" fill="#E49A41"/>
<rect width="8" height="8" transform="matrix(-1 0 0 1 107 198)" fill="#E49A41"/>
<rect width="8" height="8" transform="matrix(-1 0 0 1 107 206)" fill="#E49A41"/>
<rect width="8" height="8" transform="matrix(-1 0 0 1 107 214)" fill="#E49A41"/>
<rect width="8" height="8" transform="matrix(-1 0 0 1 99 182)" fill="#E49A41"/>
<rect width="8" height="8" transform="matrix(-1 0 0 1 91 182)" fill="#E49A41"/>
<rect width="8" height="8" transform="matrix(-1 0 0 1 83 182)" fill="#E49A41"/>
<rect width="8" height="8" transform="matrix(-1 0 0 1 75 182)" fill="#E49A41"/>
<rect width="8" height="8" transform="matrix(-1 0 0 1 67 190)" fill="#E49A41"/>
<rect width="8" height="8" transform="matrix(-1 0 0 1 59 206)" fill="#E49A41"/>
<rect width="8" height="8" transform="matrix(-1 0 0 1 67 198)" fill="#E49A41"/>
<rect width="8" height="8" transform="matrix(-1 0 0 1 59 214)" fill="#E49A41"/>
<rect width="8" height="8" transform="matrix(-1 0 0 1 51 222)" fill="#E49A41"/>
<rect width="8" height="8" transform="matrix(-1 0 0 1 59 230)" fill="#E49A41"/>
<rect width="8" height="8" transform="matrix(-1 0 0 1 67 238)" fill="#E49A41"/>
<rect width="8" height="8" transform="matrix(-1 0 0 1 75 190)" fill="#E49A41"/>
<rect width="8" height="8" transform="matrix(-1 0 0 1 91 190)" fill="#E49A41"/>
<rect width="8" height="8" transform="matrix(-1 0 0 1 99 190)" fill="#E49A41"/>
<rect width="8" height="8" transform="matrix(-1 0 0 1 99 198)" fill="#E49A41"/>
<rect width="8" height="8" transform="matrix(-1 0 0 1 75 198)" fill="#EFBF41"/>
<rect width="8" height="8" transform="matrix(-1 0 0 1 75 206)" fill="#F1DD98"/>
<rect width="8" height="8" transform="matrix(-1 0 0 1 75 214)" fill="#F1DD98"/>
<rect width="8" height="8" transform="matrix(-1 0 0 1 75 222)" fill="#F1DD98"/>
<rect width="8" height="8" transform="matrix(-1 0 0 1 75 230)" fill="#B6863C"/>
<rect width="8" height="8" transform="matrix(-1 0 0 1 83 190)" fill="#EFBF41"/>
<rect width="8" height="8" transform="matrix(-1 0 0 1 83 198)" fill="#F1DD98"/>
<rect width="8" height="8" transform="matrix(-1 0 0 1 83 206)" fill="#F1DD98"/>
<rect width="8" height="8" transform="matrix(-1 0 0 1 83 214)" fill="#F1DD98"/>
<rect width="8" height="8" transform="matrix(-1 0 0 1 83 222)" fill="#B6863C"/>
<rect width="8" height="8" transform="matrix(-1 0 0 1 91 198)" fill="#EFBF41"/>
<rect width="8" height="8" transform="matrix(-1 0 0 1 91 206)" fill="#F1DD98"/>
<rect width="8" height="8" transform="matrix(-1 0 0 1 91 214)" fill="#F1DD98"/>
<rect width="8" height="8" transform="matrix(-1 0 0 1 91 222)" fill="#F1DD98"/>
<rect width="8" height="8" transform="matrix(-1 0 0 1 67 230)" fill="#F1DD98"/>
<rect width="8" height="8" transform="matrix(-1 0 0 1 83 230)" fill="#F1DD98"/>
<rect width="8" height="8" transform="matrix(-1 0 0 1 99 230)" fill="#F1DD98"/>
<rect width="8" height="8" transform="matrix(-1 0 0 1 91 238)" fill="#F1DD98"/>
<rect width="8" height="8" transform="matrix(-1 0 0 1 83 238)" fill="#F1DD98"/>
<rect width="8" height="8" transform="matrix(-1 0 0 1 75 238)" fill="#F1DD98"/>
<rect width="8" height="8" transform="matrix(-1 0 0 1 115 230)" fill="#F1DD98"/>
<rect width="8" height="8" transform="matrix(-1 0 0 1 115 238)" fill="#E49A41"/>
<rect width="8" height="8" transform="matrix(-1 0 0 1 123 222)" fill="#F1DD98"/>
<rect width="8" height="8" transform="matrix(-1 0 0 1 123 230)" fill="#F1DD98"/>
<rect width="8" height="8" transform="matrix(-1 0 0 1 123 238)" fill="#E49A41"/>
<rect width="8" height="8" transform="matrix(-1 0 0 1 107 238)" fill="#F1DD98"/>
<rect width="8" height="8" transform="matrix(-1 0 0 1 107 230)" fill="#F1DD98"/>
<rect width="8" height="8" transform="matrix(-1 0 0 1 99 238)" fill="#F1DD98"/>
<rect width="8" height="8" transform="matrix(-1 0 0 1 99 222)" fill="#F1DD98"/>
<rect width="8" height="8" transform="matrix(-1 0 0 1 91 230)" fill="#B6863C"/>
<rect width="8" height="8" transform="matrix(-1 0 0 1 123 166)" fill="#E49A41"/>
<rect width="8" height="8" transform="matrix(-1 0 0 1 131 166)" fill="#E49A41"/>
<rect width="8" height="8" transform="matrix(-1 0 0 1 131 174)" fill="#E49A41"/>
<rect width="8" height="8" transform="matrix(-1 0 0 1 131 182)" fill="#E49A41"/>
<rect width="8" height="8" transform="matrix(-1 0 0 1 131 190)" fill="#E49A41"/>
<rect width="8" height="8" transform="matrix(-1 0 0 1 131 198)" fill="#E49A41"/>
<rect width="8" height="8" transform="matrix(-1 0 0 1 131 206)" fill="#E49A41"/>
<rect width="8" height="8" transform="matrix(-1 0 0 1 139 206)" fill="#E49A41"/>
<rect width="8" height="8" transform="matrix(-1 0 0 1 147 214)" fill="#E49A41"/>
<rect width="8" height="8" transform="matrix(-1 0 0 1 139 214)" fill="#E49A41"/>
<rect width="8" height="8" transform="matrix(-1 0 0 1 131 214)" fill="#E49A41"/>
<rect width="8" height="8" transform="matrix(-1 0 0 1 139 222)" fill="#E49A41"/>
<rect width="8" height="8" transform="matrix(-1 0 0 1 131 222)" fill="#E49A41"/>
<rect width="8" height="8" transform="matrix(-1 0 0 1 131 230)" fill="#E49A41"/>
<rect x="59" y="158" width="8" height="8" fill="#E49A41"/>
<rect width="8" height="8" transform="matrix(-1 0 0 1 123 158)" fill="#E49A41"/>
<rect x="75" y="174" width="8" height="8" fill="#925A1F"/>
<rect x="59" y="182" width="8" height="8" fill="#925A1F"/>
<rect x="91" y="174" width="8" height="8" fill="#853F1E"/>
<rect x="99" y="166" width="8" height="8" fill="#853F1E"/>
<rect x="107" y="158" width="8" height="8" fill="#853F1E"/>
<rect x="115" y="150" width="8" height="8" fill="#853F1E"/>
<rect x="123" y="158" width="8" height="8" fill="#853F1E"/>
<rect x="131" y="166" width="8" height="8" fill="#853F1E"/>
<rect x="131" y="174" width="8" height="8" fill="#853F1E"/>
<rect x="131" y="182" width="8" height="8" fill="#853F1E"/>
<rect x="131" y="190" width="8" height="8" fill="#853F1E"/>
<rect x="131" y="198" width="8" height="8" fill="#853F1E"/>
<rect x="139" y="206" width="8" height="8" fill="#853F1E"/>
<rect x="147" y="214" width="8" height="8" fill="#853F1E"/>
<rect x="139" y="222" width="8" height="8" fill="#853F1E"/>
<rect x="51" y="166" width="8" height="8" fill="#853F1E"/>
<rect x="51" y="174" width="8" height="8" fill="#853F1E"/>
<rect x="51" y="182" width="8" height="8" fill="#853F1E"/>
<rect x="51" y="190" width="8" height="8" fill="#853F1E"/>
<rect x="43" y="206" width="8" height="8" fill="#853F1E"/>
<rect x="51" y="198" width="8" height="8" fill="#853F1E"/>
<rect x="43" y="214" width="8" height="8" fill="#853F1E"/>
<rect x="59" y="246" width="8" height="8" fill="#2F240E"/>
<rect x="59" y="254" width="8" height="8" fill="#2F240E"/>
<rect x="51" y="262" width="8" height="8" fill="#2F240E"/>
<rect x="51" y="270" width="8" height="8" fill="#2F240E"/>
<rect x="59" y="278" width="8" height="8" fill="#2F240E"/>
<rect x="67" y="278" width="8" height="8" fill="#2F240E"/>
<rect x="75" y="278" width="8" height="8" fill="#2F240E"/>
<rect x="83" y="278" width="8" height="8" fill="#2F240E"/>
<rect x="91" y="278" width="8" height="8" fill="#2F240E"/>
<rect x="91" y="270" width="8" height="8" fill="#2F240E"/>
<rect x="83" y="262" width="8" height="8" fill="#2F240E"/>
<rect x="99" y="262" width="8" height="8" fill="#2F240E"/>
<rect x="99" y="270" width="8" height="8" fill="#2F240E"/>
<rect x="99" y="278" width="8" height="8" fill="#2F240E"/>
<rect x="107" y="278" width="8" height="8" fill="#2F240E"/>
<rect x="115" y="278" width="8" height="8" fill="#2F240E"/>
<rect x="123" y="278" width="8" height="8" fill="#2F240E"/>
<rect x="131" y="278" width="8" height="8" fill="#2F240E"/>
<rect x="139" y="278" width="8" height="8" fill="#2F240E"/>
<rect x="147" y="278" width="8" height="8" fill="#2F240E"/>
<rect x="155" y="278" width="8" height="8" fill="#2F240E"/>
<rect x="163" y="278" width="8" height="8" fill="#2F240E"/>
<rect x="171" y="278" width="8" height="8" fill="#2F240E"/>
<rect x="179" y="278" width="8" height="8" fill="#2F240E"/>
<rect x="187" y="278" width="8" height="8" fill="#2F240E"/>
<rect x="195" y="278" width="8" height="8" fill="#2F240E"/>
<rect x="203" y="270" width="8" height="8" fill="#2F240E"/>
<rect x="203" y="262" width="8" height="8" fill="#2F240E"/>
<rect width="8" height="8" transform="matrix(-1 0 0 1 163 214)" fill="#ECAA5E"/>
<rect width="8" height="8" transform="matrix(-1 0 0 1 155 222)" fill="#ECAA5E"/>
<rect width="8" height="8" transform="matrix(-1 0 0 1 147 230)" fill="#ECAA5E"/>
<rect width="8" height="8" transform="matrix(-1 0 0 1 179 222)" fill="#E49A41"/>
<rect width="8" height="8" transform="matrix(-1 0 0 1 171 230)" fill="#E49A41"/>
<rect width="8" height="8" transform="matrix(-1 0 0 1 163 238)" fill="#E49A41"/>
<rect width="8" height="8" transform="matrix(-1 0 0 1 155 246)" fill="#E49A41"/>
<rect width="8" height="8" transform="matrix(-1 0 0 1 131 246)" fill="#E49A41"/>
<rect width="8" height="8" transform="matrix(-1 0 0 1 139 246)" fill="#E49A41"/>
<rect width="8" height="8" transform="matrix(-1 0 0 1 147 246)" fill="#E49A41"/>
<rect width="8" height="8" transform="matrix(-1 0 0 1 147 238)" fill="#E49A41"/>
<rect width="8" height="8" transform="matrix(-1 0 0 1 155 238)" fill="#E49A41"/>
<rect width="8" height="8" transform="matrix(-1 0 0 1 147 254)" fill="#E49A41"/>
<rect width="8" height="8" transform="matrix(-1 0 0 1 139 262)" fill="#E49A41"/>
<rect width="8" height="8" transform="matrix(-1 0 0 1 131 270)" fill="#E49A41"/>
<rect width="8" height="8" transform="matrix(-1 0 0 1 187 238)" fill="#E49A41"/>
<rect width="8" height="8" transform="matrix(-1 0 0 1 179 246)" fill="#E49A41"/>
<rect width="8" height="8" transform="matrix(-1 0 0 1 171 254)" fill="#ECAA5E"/>
<rect width="8" height="8" transform="matrix(-1 0 0 1 163 262)" fill="#E49A41"/>
<rect width="8" height="8" transform="matrix(-1 0 0 1 155 270)" fill="#ECAA5E"/>
<rect width="8" height="8" transform="matrix(-1 0 0 1 179 270)" fill="#E49A41"/>
<rect width="8" height="8" transform="matrix(-1 0 0 1 187 262)" fill="#E49A41"/>
<rect width="8" height="8" transform="matrix(-1 0 0 1 195 254)" fill="#E49A41"/>
<rect width="8" height="8" transform="matrix(-1 0 0 1 123 254)" fill="#E49A41"/>
<rect width="8" height="8" transform="matrix(-1 0 0 1 99 254)" fill="#F1DD98"/>
<rect width="8" height="8" transform="matrix(-1 0 0 1 75 254)" fill="#F1DD98"/>
<rect width="8" height="8" transform="matrix(-1 0 0 1 67 262)" fill="#E49A41"/>
<rect width="8" height="8" transform="matrix(-1 0 0 1 67 270)" fill="#E49A41"/>
<rect width="8" height="8" transform="matrix(-1 0 0 1 115 262)" fill="#ECAA5E"/>
<rect width="8" height="8" transform="matrix(-1 0 0 1 115 270)" fill="#ECAA5E"/>
<rect width="8" height="8" transform="matrix(-1 0 0 1 171 214)" fill="#ECAA5E"/>
<rect width="8" height="8" transform="matrix(-1 0 0 1 163 222)" fill="#E49A41"/>
<rect width="8" height="8" transform="matrix(-1 0 0 1 155 230)" fill="#E49A41"/>
<rect width="8" height="8" transform="matrix(-1 0 0 1 187 222)" fill="#E49A41"/>
<rect width="8" height="8" transform="matrix(-1 0 0 1 179 230)" fill="#F1DD98"/>
<rect width="8" height="8" transform="matrix(-1 0 0 1 171 238)" fill="#E49A41"/>
<rect width="8" height="8" transform="matrix(-1 0 0 1 163 246)" fill="#E49A41"/>
<rect width="8" height="8" transform="matrix(-1 0 0 1 155 254)" fill="#E49A41"/>
<rect width="8" height="8" transform="matrix(-1 0 0 1 147 262)" fill="#E49A41"/>
<rect width="8" height="8" transform="matrix(-1 0 0 1 139 270)" fill="#E49A41"/>
<rect width="8" height="8" transform="matrix(-1 0 0 1 195 238)" fill="#E49A41"/>
<rect width="8" height="8" transform="matrix(-1 0 0 1 187 246)" fill="#E49A41"/>
<rect x="195" y="246" width="8" height="8" fill="#853F1E"/>
<rect x="203" y="246" width="8" height="8" fill="#853F1E"/>
<rect x="203" y="238" width="8" height="8" fill="#853F1E"/>
<rect x="187" y="230" width="8" height="8" fill="#853F1E"/>
<rect x="195" y="230" width="8" height="8" fill="#853F1E"/>
<rect width="8" height="8" transform="matrix(-1 0 0 1 179 254)" fill="#E49A41"/>
<rect width="8" height="8" transform="matrix(-1 0 0 1 171 262)" fill="#E49A41"/>
<rect width="8" height="8" transform="matrix(-1 0 0 1 163 270)" fill="#E49A41"/>
<rect width="8" height="8" transform="matrix(-1 0 0 1 187 270)" fill="#E49A41"/>
<rect width="8" height="8" transform="matrix(-1 0 0 1 195 262)" fill="#E49A41"/>
<rect width="8" height="8" transform="matrix(-1 0 0 1 203 254)" fill="#E49A41"/>
<rect width="8" height="8" transform="matrix(-1 0 0 1 131 254)" fill="#E49A41"/>
<rect width="8" height="8" transform="matrix(-1 0 0 1 107 254)" fill="#F1DD98"/>
<rect width="8" height="8" transform="matrix(-1 0 0 1 83 254)" fill="#F1DD98"/>
<rect width="8" height="8" transform="matrix(-1 0 0 1 75 262)" fill="#E49A41"/>
<rect width="8" height="8" transform="matrix(-1 0 0 1 75 270)" fill="#E49A41"/>
<rect width="8" height="8" transform="matrix(-1 0 0 1 123 262)" fill="#E49A41"/>
<rect width="8" height="8" transform="matrix(-1 0 0 1 123 270)" fill="#E49A41"/>
<rect width="8" height="8" transform="matrix(-1 0 0 1 179 214)" fill="#E49A41"/>
<rect width="8" height="8" transform="matrix(-1 0 0 1 171 222)" fill="#F1DD98"/>
<rect width="8" height="8" transform="matrix(-1 0 0 1 163 230)" fill="#E49A41"/>
<rect width="8" height="8" transform="matrix(-1 0 0 1 195 222)" fill="#E49A41"/>
<rect width="8" height="8" transform="matrix(-1 0 0 1 187 230)" fill="#E49A41"/>
<rect width="8" height="8" transform="matrix(-1 0 0 1 179 238)" fill="#E49A41"/>
<rect width="8" height="8" transform="matrix(-1 0 0 1 171 246)" fill="#E49A41"/>
<rect width="8" height="8" transform="matrix(-1 0 0 1 163 254)" fill="#ECAA5E"/>
<rect width="8" height="8" transform="matrix(-1 0 0 1 155 262)" fill="#ECAA5E"/>
<rect width="8" height="8" transform="matrix(-1 0 0 1 147 270)" fill="#E49A41"/>
<rect width="8" height="8" transform="matrix(-1 0 0 1 203 238)" fill="#E49A41"/>
<rect width="8" height="8" transform="matrix(-1 0 0 1 195 246)" fill="#E49A41"/>
<rect width="8" height="8" transform="matrix(-1 0 0 1 187 254)" fill="#E49A41"/>
<rect width="8" height="8" transform="matrix(-1 0 0 1 179 262)" fill="#E49A41"/>
<rect width="8" height="8" transform="matrix(-1 0 0 1 171 270)" fill="#E49A41"/>
<rect width="8" height="8" transform="matrix(-1 0 0 1 195 270)" fill="#E49A41"/>
<rect width="8" height="8" transform="matrix(-1 0 0 1 203 262)" fill="#E49A41"/>
<rect width="8" height="8" transform="matrix(-1 0 0 1 211 254)" fill="#E49A41"/>
<rect width="8" height="8" transform="matrix(-1 0 0 1 139 254)" fill="#E49A41"/>
<rect width="8" height="8" transform="matrix(-1 0 0 1 115 254)" fill="#E49A41"/>
<rect width="8" height="8" transform="matrix(-1 0 0 1 91 254)" fill="#F1DD98"/>
<rect width="8" height="8" transform="matrix(-1 0 0 1 83 262)" fill="#F1DD98"/>
<rect width="8" height="8" transform="matrix(-1 0 0 1 83 270)" fill="#E49A41"/>
<rect width="8" height="8" transform="matrix(-1 0 0 1 131 262)" fill="#E49A41"/>
<rect width="8" height="8" transform="matrix(-1 0 0 1 99 262)" fill="#F1DD98"/>
<rect width="8" height="8" transform="matrix(-1 0 0 1 91 270)" fill="#F1DD98"/>
<rect x="155" y="206" width="8" height="8" fill="#853F1E"/>
<rect x="163" y="206" width="8" height="8" fill="#853F1E"/>
<rect x="171" y="206" width="8" height="8" fill="#853F1E"/>
<rect x="179" y="214" width="8" height="8" fill="#853F1E"/>
<rect x="187" y="214" width="8" height="8" fill="#853F1E"/>
<rect x="195" y="222" width="8" height="8" fill="#853F1E"/>
<rect x="203" y="230" width="8" height="8" fill="#2F240E"/>
<rect x="211" y="246" width="8" height="8" fill="#853F1E"/>
<rect x="211" y="254" width="8" height="8" fill="#853F1E"/>
<rect x="195" y="270" width="8" height="8" fill="#853F1E"/>
<rect width="8" height="8" transform="matrix(-1 0 0 1 243 182)" fill="#F1DD98"/>
<rect x="219" y="246" width="8" height="8" fill="#2F240E"/>
<rect x="211" y="238" width="8" height="8" fill="#2F240E"/>
<rect x="235" y="198" width="8" height="8" fill="#ECAA5E"/>
<rect x="227" y="190" width="8" height="8" fill="#ECAA5E"/>
<rect x="211" y="222" width="8" height="8" fill="#2F240E"/>
<rect x="211" y="230" width="8" height="8" fill="#2F240E"/>
<rect width="8" height="8" transform="matrix(-1 0 0 1 235 198)" fill="#E49A41"/>
<rect width="8" height="8" transform="matrix(-1 0 0 1 235 206)" fill="#E49A41"/>
<rect width="8" height="8" transform="matrix(-1 0 0 1 243 206)" fill="#E49A41"/>
<rect width="8" height="8" transform="matrix(-1 0 0 1 235 214)" fill="#E49A41"/>
<rect width="8" height="8" transform="matrix(-1 0 0 1 243 214)" fill="#E49A41"/>
<rect width="8" height="8" transform="matrix(-1 0 0 1 235 222)" fill="#E49A41"/>
<rect width="8" height="8" transform="matrix(-1 0 0 1 235 230)" fill="#AE6B50"/>
<rect width="8" height="8" transform="matrix(-1 0 0 1 227 230)" fill="#AE6B50"/>
<rect width="8" height="8" transform="matrix(-1 0 0 1 227 222)" fill="#AE6B50"/>
<rect width="8" height="8" transform="matrix(-1 0 0 1 227 238)" fill="#AE6B50"/>
<rect x="219" y="198" width="8" height="8" fill="#853F1E"/>
<rect x="219" y="190" width="8" height="8" fill="#853F1E"/>
<rect x="211" y="182" width="8" height="8" fill="#853F1E"/>
<rect x="211" y="174" width="8" height="8" fill="#853F1E"/>
<rect width="8" height="8" transform="matrix(-1 0 0 1 227 174)" fill="#F1DD98"/>
<rect width="8" height="8" transform="matrix(-1 0 0 1 227 182)" fill="#F1DD98"/>
<rect width="8" height="8" transform="matrix(-1 0 0 1 235 174)" fill="#F1DD98"/>
<rect width="8" height="8" transform="matrix(-1 0 0 1 235 182)" fill="#F1DD98"/>
<rect width="8" height="8" transform="matrix(-1 0 0 1 243 190)" fill="#F1DD98"/>
<rect x="219" y="166" width="8" height="8" fill="#853F1E"/>
<rect x="227" y="166" width="8" height="8" fill="#853F1E"/>
<rect x="235" y="174" width="8" height="8" fill="#853F1E"/>
<rect x="243" y="182" width="8" height="8" fill="#853F1E"/>
<rect x="243" y="190" width="8" height="8" fill="#2F240E"/>
<rect x="243" y="198" width="8" height="8" fill="#2F240E"/>
<rect x="243" y="206" width="8" height="8" fill="#2F240E"/>
<rect x="235" y="222" width="8" height="8" fill="#2F240E"/>
<rect x="243" y="214" width="8" height="8" fill="#2F240E"/>
<rect x="235" y="230" width="8" height="8" fill="#2F240E"/>
<rect x="227" y="238" width="8" height="8" fill="#2F240E"/>
<rect x="219" y="206" width="8" height="8" fill="#853F1E"/>
<rect x="219" y="214" width="8" height="8" fill="#853F1E"/>
<rect x="139" y="270" width="8" height="8" fill="#2F240E"/>
<rect x="139" y="262" width="8" height="8" fill="#2F240E"/>
<rect x="147" y="254" width="8" height="8" fill="#2F240E"/>
<rect x="155" y="246" width="8" height="8" fill="#2F240E"/>
<rect x="163" y="246" width="8" height="8" fill="#2F240E"/>
</svg>
