<svg width="286" height="286" viewBox="0 0 286 286" fill="none" xmlns="http://www.w3.org/2000/svg">
<rect x="66" y="246" width="8" height="8" fill="#2F240E"/>
<rect x="66" y="254" width="8" height="8" fill="#2F240E"/>
<rect x="58" y="262" width="8" height="8" fill="#2F240E"/>
<rect x="58" y="270" width="8" height="8" fill="#2F240E"/>
<rect x="66" y="278" width="8" height="8" fill="#2F240E"/>
<rect x="74" y="278" width="8" height="8" fill="#2F240E"/>
<rect x="82" y="278" width="8" height="8" fill="#2F240E"/>
<rect x="90" y="278" width="8" height="8" fill="#2F240E"/>
<rect x="98" y="278" width="8" height="8" fill="#2F240E"/>
<rect x="98" y="270" width="8" height="8" fill="#2F240E"/>
<rect x="90" y="262" width="8" height="8" fill="#2F240E"/>
<rect x="106" y="262" width="8" height="8" fill="#2F240E"/>
<rect x="106" y="270" width="8" height="8" fill="#2F240E"/>
<rect x="106" y="278" width="8" height="8" fill="#2F240E"/>
<rect x="114" y="278" width="8" height="8" fill="#2F240E"/>
<rect x="122" y="278" width="8" height="8" fill="#2F240E"/>
<rect x="130" y="278" width="8" height="8" fill="#2F240E"/>
<rect x="138" y="278" width="8" height="8" fill="#2F240E"/>
<rect x="146" y="278" width="8" height="8" fill="#2F240E"/>
<rect x="154" y="278" width="8" height="8" fill="#2F240E"/>
<rect x="162" y="278" width="8" height="8" fill="#2F240E"/>
<rect x="170" y="278" width="8" height="8" fill="#2F240E"/>
<rect x="178" y="278" width="8" height="8" fill="#2F240E"/>
<rect x="186" y="278" width="8" height="8" fill="#2F240E"/>
<rect x="194" y="278" width="8" height="8" fill="#2F240E"/>
<rect x="202" y="278" width="8" height="8" fill="#2F240E"/>
<rect x="210" y="270" width="8" height="8" fill="#2F240E"/>
<rect x="210" y="262" width="8" height="8" fill="#2F240E"/>
<rect width="8" height="8" transform="matrix(-1 0 0 1 170 214)" fill="#ECAA5E"/>
<rect width="8" height="8" transform="matrix(-1 0 0 1 162 222)" fill="#ECAA5E"/>
<rect width="8" height="8" transform="matrix(-1 0 0 1 154 230)" fill="#ECAA5E"/>
<rect width="8" height="8" transform="matrix(-1 0 0 1 186 222)" fill="#E49A41"/>
<rect width="8" height="8" transform="matrix(-1 0 0 1 178 230)" fill="#E49A41"/>
<rect width="8" height="8" transform="matrix(-1 0 0 1 170 238)" fill="#E49A41"/>
<rect width="8" height="8" transform="matrix(-1 0 0 1 162 246)" fill="#E49A41"/>
<rect width="8" height="8" transform="matrix(-1 0 0 1 138 246)" fill="#E49A41"/>
<rect width="8" height="8" transform="matrix(-1 0 0 1 146 246)" fill="#E49A41"/>
<rect width="8" height="8" transform="matrix(-1 0 0 1 154 246)" fill="#E49A41"/>
<rect width="8" height="8" transform="matrix(-1 0 0 1 154 238)" fill="#E49A41"/>
<rect width="8" height="8" transform="matrix(-1 0 0 1 162 238)" fill="#E49A41"/>
<rect width="8" height="8" transform="matrix(-1 0 0 1 154 254)" fill="#E49A41"/>
<rect width="8" height="8" transform="matrix(-1 0 0 1 146 262)" fill="#E49A41"/>
<rect width="8" height="8" transform="matrix(-1 0 0 1 138 270)" fill="#E49A41"/>
<rect width="8" height="8" transform="matrix(-1 0 0 1 194 238)" fill="#E49A41"/>
<rect width="8" height="8" transform="matrix(-1 0 0 1 186 246)" fill="#E49A41"/>
<rect width="8" height="8" transform="matrix(-1 0 0 1 178 254)" fill="#ECAA5E"/>
<rect width="8" height="8" transform="matrix(-1 0 0 1 170 262)" fill="#E49A41"/>
<rect width="8" height="8" transform="matrix(-1 0 0 1 162 270)" fill="#ECAA5E"/>
<rect width="8" height="8" transform="matrix(-1 0 0 1 186 270)" fill="#E49A41"/>
<rect width="8" height="8" transform="matrix(-1 0 0 1 194 262)" fill="#E49A41"/>
<rect width="8" height="8" transform="matrix(-1 0 0 1 202 254)" fill="#E49A41"/>
<rect width="8" height="8" transform="matrix(-1 0 0 1 130 254)" fill="#E49A41"/>
<rect width="8" height="8" transform="matrix(-1 0 0 1 106 254)" fill="#F1DD98"/>
<rect width="8" height="8" transform="matrix(-1 0 0 1 82 254)" fill="#F1DD98"/>
<rect width="8" height="8" transform="matrix(-1 0 0 1 74 262)" fill="#E49A41"/>
<rect width="8" height="8" transform="matrix(-1 0 0 1 74 270)" fill="#E49A41"/>
<rect width="8" height="8" transform="matrix(-1 0 0 1 122 262)" fill="#ECAA5E"/>
<rect width="8" height="8" transform="matrix(-1 0 0 1 122 270)" fill="#ECAA5E"/>
<rect width="8" height="8" transform="matrix(-1 0 0 1 178 214)" fill="#ECAA5E"/>
<rect width="8" height="8" transform="matrix(-1 0 0 1 170 222)" fill="#E49A41"/>
<rect width="8" height="8" transform="matrix(-1 0 0 1 162 230)" fill="#E49A41"/>
<rect width="8" height="8" transform="matrix(-1 0 0 1 194 222)" fill="#E49A41"/>
<rect width="8" height="8" transform="matrix(-1 0 0 1 186 230)" fill="#F1DD98"/>
<rect width="8" height="8" transform="matrix(-1 0 0 1 178 238)" fill="#E49A41"/>
<rect width="8" height="8" transform="matrix(-1 0 0 1 170 246)" fill="#E49A41"/>
<rect width="8" height="8" transform="matrix(-1 0 0 1 162 254)" fill="#E49A41"/>
<rect width="8" height="8" transform="matrix(-1 0 0 1 154 262)" fill="#E49A41"/>
<rect width="8" height="8" transform="matrix(-1 0 0 1 146 270)" fill="#E49A41"/>
<rect width="8" height="8" transform="matrix(-1 0 0 1 202 238)" fill="#E49A41"/>
<rect width="8" height="8" transform="matrix(-1 0 0 1 194 246)" fill="#E49A41"/>
<rect x="202" y="246" width="8" height="8" fill="#853F1E"/>
<rect x="210" y="246" width="8" height="8" fill="#853F1E"/>
<rect x="210" y="238" width="8" height="8" fill="#853F1E"/>
<rect x="194" y="230" width="8" height="8" fill="#853F1E"/>
<rect x="202" y="230" width="8" height="8" fill="#853F1E"/>
<rect width="8" height="8" transform="matrix(-1 0 0 1 186 254)" fill="#E49A41"/>
<rect width="8" height="8" transform="matrix(-1 0 0 1 178 262)" fill="#E49A41"/>
<rect width="8" height="8" transform="matrix(-1 0 0 1 170 270)" fill="#E49A41"/>
<rect width="8" height="8" transform="matrix(-1 0 0 1 194 270)" fill="#E49A41"/>
<rect width="8" height="8" transform="matrix(-1 0 0 1 202 262)" fill="#E49A41"/>
<rect width="8" height="8" transform="matrix(-1 0 0 1 210 254)" fill="#E49A41"/>
<rect width="8" height="8" transform="matrix(-1 0 0 1 138 254)" fill="#E49A41"/>
<rect width="8" height="8" transform="matrix(-1 0 0 1 114 254)" fill="#F1DD98"/>
<rect width="8" height="8" transform="matrix(-1 0 0 1 90 254)" fill="#F1DD98"/>
<rect width="8" height="8" transform="matrix(-1 0 0 1 82 262)" fill="#E49A41"/>
<rect width="8" height="8" transform="matrix(-1 0 0 1 82 270)" fill="#E49A41"/>
<rect width="8" height="8" transform="matrix(-1 0 0 1 130 262)" fill="#E49A41"/>
<rect width="8" height="8" transform="matrix(-1 0 0 1 130 270)" fill="#E49A41"/>
<rect width="8" height="8" transform="matrix(-1 0 0 1 186 214)" fill="#E49A41"/>
<rect width="8" height="8" transform="matrix(-1 0 0 1 178 222)" fill="#F1DD98"/>
<rect width="8" height="8" transform="matrix(-1 0 0 1 170 230)" fill="#E49A41"/>
<rect width="8" height="8" transform="matrix(-1 0 0 1 202 222)" fill="#E49A41"/>
<rect width="8" height="8" transform="matrix(-1 0 0 1 194 230)" fill="#E49A41"/>
<rect width="8" height="8" transform="matrix(-1 0 0 1 186 238)" fill="#E49A41"/>
<rect width="8" height="8" transform="matrix(-1 0 0 1 178 246)" fill="#E49A41"/>
<rect width="8" height="8" transform="matrix(-1 0 0 1 170 254)" fill="#ECAA5E"/>
<rect width="8" height="8" transform="matrix(-1 0 0 1 162 262)" fill="#ECAA5E"/>
<rect width="8" height="8" transform="matrix(-1 0 0 1 154 270)" fill="#E49A41"/>
<rect width="8" height="8" transform="matrix(-1 0 0 1 210 238)" fill="#E49A41"/>
<rect width="8" height="8" transform="matrix(-1 0 0 1 202 246)" fill="#E49A41"/>
<rect width="8" height="8" transform="matrix(-1 0 0 1 194 254)" fill="#E49A41"/>
<rect width="8" height="8" transform="matrix(-1 0 0 1 186 262)" fill="#E49A41"/>
<rect width="8" height="8" transform="matrix(-1 0 0 1 178 270)" fill="#E49A41"/>
<rect width="8" height="8" transform="matrix(-1 0 0 1 202 270)" fill="#E49A41"/>
<rect width="8" height="8" transform="matrix(-1 0 0 1 210 262)" fill="#E49A41"/>
<rect width="8" height="8" transform="matrix(-1 0 0 1 218 254)" fill="#E49A41"/>
<rect width="8" height="8" transform="matrix(-1 0 0 1 146 254)" fill="#E49A41"/>
<rect width="8" height="8" transform="matrix(-1 0 0 1 122 254)" fill="#E49A41"/>
<rect width="8" height="8" transform="matrix(-1 0 0 1 98 254)" fill="#F1DD98"/>
<rect width="8" height="8" transform="matrix(-1 0 0 1 90 262)" fill="#F1DD98"/>
<rect width="8" height="8" transform="matrix(-1 0 0 1 90 270)" fill="#E49A41"/>
<rect width="8" height="8" transform="matrix(-1 0 0 1 138 262)" fill="#E49A41"/>
<rect width="8" height="8" transform="matrix(-1 0 0 1 106 262)" fill="#F1DD98"/>
<rect width="8" height="8" transform="matrix(-1 0 0 1 98 270)" fill="#F1DD98"/>
<rect x="162" y="206" width="8" height="8" fill="#853F1E"/>
<rect x="154" y="214" width="8" height="8" fill="#853F1E"/>
<rect x="146" y="222" width="8" height="8" fill="#853F1E"/>
<rect x="170" y="206" width="8" height="8" fill="#853F1E"/>
<rect x="178" y="206" width="8" height="8" fill="#853F1E"/>
<rect x="186" y="214" width="8" height="8" fill="#853F1E"/>
<rect x="194" y="214" width="8" height="8" fill="#853F1E"/>
<rect x="202" y="222" width="8" height="8" fill="#853F1E"/>
<rect x="210" y="230" width="8" height="8" fill="#2F240E"/>
<rect x="218" y="238" width="8" height="8" fill="#2F240E"/>
<rect x="218" y="246" width="8" height="8" fill="#853F1E"/>
<rect x="226" y="246" width="8" height="8" fill="#2F240E"/>
<rect x="218" y="254" width="8" height="8" fill="#853F1E"/>
<rect x="202" y="270" width="8" height="8" fill="#853F1E"/>
<rect x="218" y="230" width="8" height="8" fill="#2F240E"/>
<rect x="146" y="270" width="8" height="8" fill="#2F240E"/>
<rect x="146" y="262" width="8" height="8" fill="#2F240E"/>
<rect x="154" y="254" width="8" height="8" fill="#2F240E"/>
<rect x="162" y="246" width="8" height="8" fill="#2F240E"/>
<rect x="170" y="246" width="8" height="8" fill="#2F240E"/>
<rect x="58" y="182" width="8" height="8" fill="#853F1E"/>
<rect x="66" y="174" width="8" height="8" fill="#853F1E"/>
<rect x="74" y="182" width="8" height="8" fill="#853F1E"/>
<rect x="66" y="190" width="8" height="8" fill="#C67691"/>
<rect x="66" y="198" width="8" height="8" fill="#F1DD98"/>
<rect x="114" y="206" width="8" height="8" fill="#F1DD98"/>
<rect x="122" y="206" width="8" height="8" fill="#F1DD98"/>
<rect x="122" y="214" width="8" height="8" fill="#F1DD98"/>
<rect x="122" y="198" width="8" height="8" fill="#C67691"/>
<rect x="106" y="246" width="8" height="8" fill="#C67691"/>
<rect x="58" y="246" width="8" height="8" fill="#C67691"/>
<rect x="114" y="246" width="8" height="8" fill="#C67691"/>
<rect x="66" y="246" width="8" height="8" fill="#C67691"/>
<rect x="66" y="238" width="8" height="8" fill="#2F240E"/>
<rect x="42" y="246" width="8" height="8" fill="#2F240E"/>
<rect x="138" y="254" width="8" height="8" fill="#2F240E"/>
<rect x="50" y="254" width="8" height="8" fill="#2F240E"/>
<rect x="58" y="262" width="8" height="8" fill="#2F240E"/>
<rect x="98" y="238" width="8" height="8" fill="#2F240E"/>
<rect x="66" y="230" width="8" height="8" fill="#E49A41"/>
<rect x="98" y="230" width="8" height="8" fill="#E49A41"/>
<rect x="82" y="190" width="8" height="8" fill="#853F1E"/>
<rect x="90" y="198" width="8" height="8" fill="#853F1E"/>
<rect x="74" y="198" width="8" height="8" fill="#925A1F"/>
<rect x="74" y="190" width="8" height="8" fill="#E49A41"/>
<rect width="8" height="8" transform="matrix(-1 0 0 1 122 190)" fill="#E49A41"/>
<rect width="8" height="8" transform="matrix(-1 0 0 1 122 198)" fill="#E49A41"/>
<rect width="8" height="8" transform="matrix(-1 0 0 1 114 198)" fill="#E49A41"/>
<rect width="8" height="8" transform="matrix(-1 0 0 1 114 206)" fill="#E49A41"/>
<rect width="8" height="8" transform="matrix(-1 0 0 1 114 214)" fill="#E49A41"/>
<rect width="8" height="8" transform="matrix(-1 0 0 1 122 214)" fill="#E49A41"/>
<rect width="8" height="8" transform="matrix(-1 0 0 1 130 222)" fill="#E49A41"/>
<rect width="8" height="8" transform="matrix(-1 0 0 1 130 230)" fill="#E49A41"/>
<rect width="8" height="8" transform="matrix(-1 0 0 1 130 238)" fill="#E49A41"/>
<rect width="8" height="8" transform="matrix(-1 0 0 1 122 222)" fill="#E49A41"/>
<rect width="8" height="8" transform="matrix(-1 0 0 1 122 230)" fill="#E49A41"/>
<rect width="8" height="8" transform="matrix(-1 0 0 1 122 238)" fill="#E49A41"/>
<rect width="8" height="8" transform="matrix(-1 0 0 1 114 222)" fill="#E49A41"/>
<rect width="8" height="8" transform="matrix(-1 0 0 1 114 230)" fill="#E49A41"/>
<rect width="8" height="8" transform="matrix(-1 0 0 1 114 238)" fill="#E49A41"/>
<rect width="8" height="8" transform="matrix(-1 0 0 1 106 206)" fill="#E49A41"/>
<rect width="8" height="8" transform="matrix(-1 0 0 1 98 206)" fill="#E49A41"/>
<rect width="8" height="8" transform="matrix(-1 0 0 1 90 206)" fill="#E49A41"/>
<rect width="8" height="8" transform="matrix(-1 0 0 1 82 206)" fill="#E49A41"/>
<rect width="8" height="8" transform="matrix(-1 0 0 1 74 214)" fill="#E49A41"/>
<rect width="8" height="8" transform="matrix(-1 0 0 1 66 230)" fill="#E49A41"/>
<rect width="8" height="8" transform="matrix(-1 0 0 1 74 222)" fill="#E49A41"/>
<rect width="8" height="8" transform="matrix(-1 0 0 1 66 238)" fill="#E49A41"/>
<rect width="8" height="8" transform="matrix(-1 0 0 1 58 246)" fill="#E49A41"/>
<rect width="8" height="8" transform="matrix(-1 0 0 1 66 254)" fill="#E49A41"/>
<rect width="8" height="8" transform="matrix(-1 0 0 1 74 262)" fill="#E49A41"/>
<rect width="8" height="8" transform="matrix(-1 0 0 1 82 214)" fill="#E49A41"/>
<rect width="8" height="8" transform="matrix(-1 0 0 1 98 214)" fill="#E49A41"/>
<rect width="8" height="8" transform="matrix(-1 0 0 1 106 214)" fill="#E49A41"/>
<rect width="8" height="8" transform="matrix(-1 0 0 1 106 222)" fill="#E49A41"/>
<rect width="8" height="8" transform="matrix(-1 0 0 1 82 222)" fill="#EFBF41"/>
<rect width="8" height="8" transform="matrix(-1 0 0 1 82 230)" fill="#F1DD98"/>
<rect width="8" height="8" transform="matrix(-1 0 0 1 82 238)" fill="#F1DD98"/>
<rect width="8" height="8" transform="matrix(-1 0 0 1 82 246)" fill="#F1DD98"/>
<rect width="8" height="8" transform="matrix(-1 0 0 1 82 254)" fill="#B6863C"/>
<rect width="8" height="8" transform="matrix(-1 0 0 1 90 214)" fill="#EFBF41"/>
<rect width="8" height="8" transform="matrix(-1 0 0 1 90 222)" fill="#F1DD98"/>
<rect width="8" height="8" transform="matrix(-1 0 0 1 90 230)" fill="#F1DD98"/>
<rect width="8" height="8" transform="matrix(-1 0 0 1 90 238)" fill="#F1DD98"/>
<rect width="8" height="8" transform="matrix(-1 0 0 1 90 246)" fill="#B6863C"/>
<rect width="8" height="8" transform="matrix(-1 0 0 1 98 222)" fill="#EFBF41"/>
<rect width="8" height="8" transform="matrix(-1 0 0 1 98 230)" fill="#F1DD98"/>
<rect width="8" height="8" transform="matrix(-1 0 0 1 98 238)" fill="#F1DD98"/>
<rect width="8" height="8" transform="matrix(-1 0 0 1 98 246)" fill="#F1DD98"/>
<rect width="8" height="8" transform="matrix(-1 0 0 1 74 254)" fill="#F1DD98"/>
<rect width="8" height="8" transform="matrix(-1 0 0 1 90 254)" fill="#F1DD98"/>
<rect width="8" height="8" transform="matrix(-1 0 0 1 106 254)" fill="#F1DD98"/>
<rect width="8" height="8" transform="matrix(-1 0 0 1 98 262)" fill="#F1DD98"/>
<rect width="8" height="8" transform="matrix(-1 0 0 1 90 262)" fill="#F1DD98"/>
<rect width="8" height="8" transform="matrix(-1 0 0 1 82 262)" fill="#F1DD98"/>
<rect width="8" height="8" transform="matrix(-1 0 0 1 122 254)" fill="#F1DD98"/>
<rect width="8" height="8" transform="matrix(-1 0 0 1 122 262)" fill="#E49A41"/>
<rect width="8" height="8" transform="matrix(-1 0 0 1 130 246)" fill="#F1DD98"/>
<rect width="8" height="8" transform="matrix(-1 0 0 1 130 254)" fill="#F1DD98"/>
<rect width="8" height="8" transform="matrix(-1 0 0 1 130 262)" fill="#E49A41"/>
<rect width="8" height="8" transform="matrix(-1 0 0 1 114 262)" fill="#F1DD98"/>
<rect width="8" height="8" transform="matrix(-1 0 0 1 114 254)" fill="#F1DD98"/>
<rect width="8" height="8" transform="matrix(-1 0 0 1 106 262)" fill="#F1DD98"/>
<rect width="8" height="8" transform="matrix(-1 0 0 1 106 246)" fill="#F1DD98"/>
<rect width="8" height="8" transform="matrix(-1 0 0 1 98 254)" fill="#B6863C"/>
<rect width="8" height="8" transform="matrix(-1 0 0 1 130 190)" fill="#E49A41"/>
<rect width="8" height="8" transform="matrix(-1 0 0 1 138 190)" fill="#E49A41"/>
<rect width="8" height="8" transform="matrix(-1 0 0 1 138 198)" fill="#E49A41"/>
<rect width="8" height="8" transform="matrix(-1 0 0 1 138 206)" fill="#E49A41"/>
<rect width="8" height="8" transform="matrix(-1 0 0 1 138 214)" fill="#E49A41"/>
<rect width="8" height="8" transform="matrix(-1 0 0 1 138 222)" fill="#E49A41"/>
<rect width="8" height="8" transform="matrix(-1 0 0 1 138 230)" fill="#E49A41"/>
<rect width="8" height="8" transform="matrix(-1 0 0 1 146 230)" fill="#E49A41"/>
<rect width="8" height="8" transform="matrix(-1 0 0 1 154 238)" fill="#E49A41"/>
<rect width="8" height="8" transform="matrix(-1 0 0 1 146 238)" fill="#E49A41"/>
<rect width="8" height="8" transform="matrix(-1 0 0 1 138 238)" fill="#E49A41"/>
<rect width="8" height="8" transform="matrix(-1 0 0 1 146 246)" fill="#E49A41"/>
<rect width="8" height="8" transform="matrix(-1 0 0 1 138 246)" fill="#E49A41"/>
<rect width="8" height="8" transform="matrix(-1 0 0 1 138 254)" fill="#E49A41"/>
<rect x="66" y="182" width="8" height="8" fill="#E49A41"/>
<rect width="8" height="8" transform="matrix(-1 0 0 1 130 182)" fill="#E49A41"/>
<rect x="82" y="198" width="8" height="8" fill="#925A1F"/>
<rect x="66" y="206" width="8" height="8" fill="#925A1F"/>
<rect x="98" y="198" width="8" height="8" fill="#853F1E"/>
<rect x="106" y="190" width="8" height="8" fill="#853F1E"/>
<rect x="114" y="182" width="8" height="8" fill="#853F1E"/>
<rect x="122" y="174" width="8" height="8" fill="#853F1E"/>
<rect x="130" y="182" width="8" height="8" fill="#853F1E"/>
<rect x="138" y="190" width="8" height="8" fill="#853F1E"/>
<rect x="138" y="198" width="8" height="8" fill="#853F1E"/>
<rect x="138" y="206" width="8" height="8" fill="#853F1E"/>
<rect x="138" y="214" width="8" height="8" fill="#853F1E"/>
<rect x="138" y="222" width="8" height="8" fill="#853F1E"/>
<rect x="146" y="230" width="8" height="8" fill="#853F1E"/>
<rect x="154" y="238" width="8" height="8" fill="#853F1E"/>
<rect x="146" y="246" width="8" height="8" fill="#853F1E"/>
<rect x="58" y="190" width="8" height="8" fill="#853F1E"/>
<rect x="58" y="198" width="8" height="8" fill="#853F1E"/>
<rect x="58" y="206" width="8" height="8" fill="#853F1E"/>
<rect x="58" y="214" width="8" height="8" fill="#853F1E"/>
<rect x="50" y="230" width="8" height="8" fill="#853F1E"/>
<rect x="58" y="222" width="8" height="8" fill="#853F1E"/>
<rect x="50" y="238" width="8" height="8" fill="#853F1E"/>
<rect width="8" height="8" transform="matrix(0 1 1 0 178 270)" fill="#ECAA5E"/>
<rect width="8" height="8" transform="matrix(0 1 1 0 170 262)" fill="#ECAA5E"/>
<rect width="8" height="8" transform="matrix(0 1 1 0 202 246)" fill="#2F240E"/>
<rect width="8" height="8" transform="matrix(0 1 1 0 210 246)" fill="#2F240E"/>
<rect x="178" y="270" width="8" height="8" transform="rotate(-90 178 270)" fill="#E49A41"/>
<rect x="186" y="270" width="8" height="8" transform="rotate(-90 186 270)" fill="#E49A41"/>
<rect x="186" y="278" width="8" height="8" transform="rotate(-90 186 278)" fill="#E49A41"/>
<rect x="194" y="270" width="8" height="8" transform="rotate(-90 194 270)" fill="#E49A41"/>
<rect x="194" y="278" width="8" height="8" transform="rotate(-90 194 278)" fill="#E49A41"/>
<rect x="202" y="270" width="8" height="8" transform="rotate(-90 202 270)" fill="#E49A41"/>
<rect x="210" y="270" width="8" height="8" transform="rotate(-90 210 270)" fill="#AE6B50"/>
<rect x="210" y="262" width="8" height="8" transform="rotate(-90 210 262)" fill="#AE6B50"/>
<rect x="202" y="262" width="8" height="8" transform="rotate(-90 202 262)" fill="#AE6B50"/>
<rect x="218" y="262" width="8" height="8" transform="rotate(-90 218 262)" fill="#AE6B50"/>
<rect width="8" height="8" transform="matrix(0 1 1 0 178 254)" fill="#853F1E"/>
<rect width="8" height="8" transform="matrix(0 1 1 0 170 254)" fill="#853F1E"/>
<rect width="8" height="8" transform="matrix(0 1 1 0 162 246)" fill="#853F1E"/>
<rect width="8" height="8" transform="matrix(0 1 1 0 154 246)" fill="#853F1E"/>
<rect x="154" y="262" width="8" height="8" transform="rotate(-90 154 262)" fill="#F1DD98"/>
<rect x="162" y="262" width="8" height="8" transform="rotate(-90 162 262)" fill="#F1DD98"/>
<rect x="162" y="278" width="8" height="8" transform="rotate(-90 162 278)" fill="#F1DD98"/>
<rect x="154" y="270" width="8" height="8" transform="rotate(-90 154 270)" fill="#F1DD98"/>
<rect x="162" y="270" width="8" height="8" transform="rotate(-90 162 270)" fill="#F1DD98"/>
<rect x="170" y="278" width="8" height="8" transform="rotate(-90 170 278)" fill="#F1DD98"/>
<rect width="8" height="8" transform="matrix(0 1 1 0 146 254)" fill="#853F1E"/>
<rect width="8" height="8" transform="matrix(0 1 1 0 146 262)" fill="#853F1E"/>
<rect width="8" height="8" transform="matrix(0 1 1 0 154 270)" fill="#853F1E"/>
<rect width="8" height="8" transform="matrix(0 1 1 0 162 278)" fill="#853F1E"/>
<rect width="8" height="8" transform="matrix(0 1 1 0 170 278)" fill="#2F240E"/>
<rect width="8" height="8" transform="matrix(0 1 1 0 178 278)" fill="#2F240E"/>
<rect width="8" height="8" transform="matrix(0 1 1 0 186 278)" fill="#2F240E"/>
<rect width="8" height="8" transform="matrix(0 1 1 0 202 270)" fill="#2F240E"/>
<rect width="8" height="8" transform="matrix(0 1 1 0 194 278)" fill="#2F240E"/>
<rect width="8" height="8" transform="matrix(0 1 1 0 210 270)" fill="#2F240E"/>
<rect width="8" height="8" transform="matrix(0 1 1 0 218 262)" fill="#2F240E"/>
<rect width="8" height="8" transform="matrix(0 1 1 0 226 254)" fill="#2F240E"/>
<rect width="8" height="8" transform="matrix(0 1 1 0 186 254)" fill="#853F1E"/>
<rect width="8" height="8" transform="matrix(0 1 1 0 194 254)" fill="#853F1E"/>
</svg>
