<svg width="286" height="286" viewBox="0 0 286 286" fill="none" xmlns="http://www.w3.org/2000/svg">
<rect x="211" y="214" width="8" height="8" fill="#CDCDCD"/>
<rect x="203" y="206" width="8" height="8" fill="#CDCDCD"/>
<rect x="195" y="206" width="8" height="8" fill="#CDCDCD"/>
<rect x="75" y="134" width="8" height="8" fill="#6A6A6A"/>
<rect x="83" y="126" width="8" height="8" fill="#6A6A6A"/>
<rect x="91" y="134" width="8" height="8" fill="#6A6A6A"/>
<rect x="83" y="142" width="8" height="8" fill="#C67691"/>
<rect x="83" y="150" width="8" height="8" fill="#EAEAEA"/>
<rect x="131" y="158" width="8" height="8" fill="#EAEAEA"/>
<rect x="139" y="158" width="8" height="8" fill="#EAEAEA"/>
<rect x="139" y="166" width="8" height="8" fill="#EAEAEA"/>
<rect x="139" y="150" width="8" height="8" fill="#C67691"/>
<rect x="123" y="198" width="8" height="8" fill="#C67691"/>
<rect x="75" y="198" width="8" height="8" fill="#C67691"/>
<rect x="131" y="198" width="8" height="8" fill="#C67691"/>
<rect x="83" y="198" width="8" height="8" fill="#C67691"/>
<rect x="83" y="190" width="8" height="8" fill="#333333"/>
<rect x="59" y="198" width="8" height="8" fill="#333333"/>
<rect x="155" y="206" width="8" height="8" fill="#333333"/>
<rect x="163" y="214" width="8" height="8" fill="#333333"/>
<rect x="171" y="214" width="8" height="8" fill="#333333"/>
<rect x="171" y="222" width="8" height="8" fill="#333333"/>
<rect x="179" y="230" width="8" height="8" fill="#333333"/>
<rect x="187" y="238" width="8" height="8" fill="#333333"/>
<rect x="187" y="246" width="8" height="8" fill="#333333"/>
<rect x="67" y="206" width="8" height="8" fill="#333333"/>
<rect x="75" y="214" width="8" height="8" fill="#333333"/>
<rect x="83" y="214" width="8" height="8" fill="#333333"/>
<rect x="83" y="222" width="8" height="8" fill="#333333"/>
<rect x="91" y="238" width="8" height="8" fill="#333333"/>
<rect x="91" y="254" width="8" height="8" fill="#333333"/>
<rect x="83" y="230" width="8" height="8" fill="#333333"/>
<rect x="91" y="246" width="8" height="8" fill="#333333"/>
<rect x="91" y="262" width="8" height="8" fill="#333333"/>
<rect x="91" y="270" width="8" height="8" fill="#333333"/>
<rect x="99" y="278" width="8" height="8" fill="#333333"/>
<rect x="107" y="278" width="8" height="8" fill="#333333"/>
<rect x="107" y="270" width="8" height="8" fill="#333333"/>
<rect x="107" y="262" width="8" height="8" fill="#333333"/>
<rect x="115" y="278" width="8" height="8" fill="#333333"/>
<rect x="123" y="278" width="8" height="8" fill="#333333"/>
<rect x="131" y="278" width="8" height="8" fill="#333333"/>
<rect x="139" y="278" width="8" height="8" fill="#333333"/>
<rect x="147" y="278" width="8" height="8" fill="#333333"/>
<rect x="155" y="278" width="8" height="8" fill="#333333"/>
<rect x="163" y="278" width="8" height="8" fill="#333333"/>
<rect x="171" y="278" width="8" height="8" fill="#333333"/>
<rect x="179" y="270" width="8" height="8" fill="#333333"/>
<rect x="91" y="214" width="8" height="8" fill="#922623"/>
<rect x="99" y="214" width="8" height="8" fill="#922623"/>
<rect x="107" y="214" width="8" height="8" fill="#922623"/>
<rect x="115" y="214" width="8" height="8" fill="#922623"/>
<rect x="123" y="214" width="8" height="8" fill="#922623"/>
<rect x="131" y="214" width="8" height="8" fill="#922623"/>
<rect x="139" y="214" width="8" height="8" fill="#922623"/>
<rect x="155" y="214" width="8" height="8" fill="#922623"/>
<rect x="147" y="214" width="8" height="8" fill="#922623"/>
<rect x="115" y="190" width="8" height="8" fill="#333333"/>
<rect x="83" y="182" width="8" height="8" fill="#AEAEAE"/>
<rect x="115" y="182" width="8" height="8" fill="#AEAEAE"/>
<rect x="99" y="142" width="8" height="8" fill="#6A6A6A"/>
<rect x="107" y="150" width="8" height="8" fill="#6A6A6A"/>
<rect x="91" y="150" width="8" height="8" fill="#747474"/>
<rect x="91" y="142" width="8" height="8" fill="#AEAEAE"/>
<rect width="8" height="8" transform="matrix(-1 0 0 1 139 142)" fill="#AEAEAE"/>
<rect width="8" height="8" transform="matrix(-1 0 0 1 139 150)" fill="#AEAEAE"/>
<rect width="8" height="8" transform="matrix(-1 0 0 1 131 150)" fill="#AEAEAE"/>
<rect width="8" height="8" transform="matrix(-1 0 0 1 131 158)" fill="#AEAEAE"/>
<rect width="8" height="8" transform="matrix(-1 0 0 1 131 166)" fill="#AEAEAE"/>
<rect width="8" height="8" transform="matrix(-1 0 0 1 139 166)" fill="#AEAEAE"/>
<rect width="8" height="8" transform="matrix(-1 0 0 1 147 174)" fill="#AEAEAE"/>
<rect width="8" height="8" transform="matrix(-1 0 0 1 147 182)" fill="#AEAEAE"/>
<rect width="8" height="8" transform="matrix(-1 0 0 1 147 190)" fill="#AEAEAE"/>
<rect width="8" height="8" transform="matrix(-1 0 0 1 139 174)" fill="#AEAEAE"/>
<rect width="8" height="8" transform="matrix(-1 0 0 1 139 182)" fill="#AEAEAE"/>
<rect width="8" height="8" transform="matrix(-1 0 0 1 139 190)" fill="#AEAEAE"/>
<rect width="8" height="8" transform="matrix(-1 0 0 1 131 174)" fill="#AEAEAE"/>
<rect width="8" height="8" transform="matrix(-1 0 0 1 131 182)" fill="#AEAEAE"/>
<rect width="8" height="8" transform="matrix(-1 0 0 1 131 190)" fill="#AEAEAE"/>
<rect width="8" height="8" transform="matrix(-1 0 0 1 123 158)" fill="#AEAEAE"/>
<rect width="8" height="8" transform="matrix(-1 0 0 1 115 158)" fill="#AEAEAE"/>
<rect width="8" height="8" transform="matrix(-1 0 0 1 107 158)" fill="#AEAEAE"/>
<rect width="8" height="8" transform="matrix(-1 0 0 1 99 158)" fill="#AEAEAE"/>
<rect width="8" height="8" transform="matrix(-1 0 0 1 91 166)" fill="#AEAEAE"/>
<rect width="8" height="8" transform="matrix(-1 0 0 1 83 182)" fill="#AEAEAE"/>
<rect width="8" height="8" transform="matrix(-1 0 0 1 91 174)" fill="#AEAEAE"/>
<rect width="8" height="8" transform="matrix(-1 0 0 1 99 174)" fill="#AEAEAE"/>
<rect width="8" height="8" transform="matrix(-1 0 0 1 83 190)" fill="#AEAEAE"/>
<rect width="8" height="8" transform="matrix(-1 0 0 1 75 198)" fill="#AEAEAE"/>
<rect width="8" height="8" transform="matrix(-1 0 0 1 83 206)" fill="#AEAEAE"/>
<rect width="8" height="8" transform="matrix(-1 0 0 1 91 214)" fill="#AEAEAE"/>
<rect width="8" height="8" transform="matrix(-1 0 0 1 99 166)" fill="#AEAEAE"/>
<rect width="8" height="8" transform="matrix(-1 0 0 1 115 166)" fill="#AEAEAE"/>
<rect width="8" height="8" transform="matrix(-1 0 0 1 123 166)" fill="#AEAEAE"/>
<rect width="8" height="8" transform="matrix(-1 0 0 1 123 174)" fill="#AEAEAE"/>
<rect width="8" height="8" transform="matrix(-1 0 0 1 99 166)" fill="#CACACA"/>
<rect width="8" height="8" transform="matrix(-1 0 0 1 99 182)" fill="#EAEAEA"/>
<rect width="8" height="8" transform="matrix(-1 0 0 1 99 190)" fill="#EAEAEA"/>
<rect width="8" height="8" transform="matrix(-1 0 0 1 99 198)" fill="#EAEAEA"/>
<rect width="8" height="8" transform="matrix(-1 0 0 1 99 206)" fill="#999999"/>
<rect width="8" height="8" transform="matrix(-1 0 0 1 107 166)" fill="#CACACA"/>
<rect width="8" height="8" transform="matrix(-1 0 0 1 107 174)" fill="#EAEAEA"/>
<rect width="8" height="8" transform="matrix(-1 0 0 1 107 182)" fill="#EAEAEA"/>
<rect width="8" height="8" transform="matrix(-1 0 0 1 107 190)" fill="#EAEAEA"/>
<rect width="8" height="8" transform="matrix(-1 0 0 1 107 198)" fill="#999999"/>
<rect width="8" height="8" transform="matrix(-1 0 0 1 115 174)" fill="#CACACA"/>
<rect width="8" height="8" transform="matrix(-1 0 0 1 115 182)" fill="#EAEAEA"/>
<rect width="8" height="8" transform="matrix(-1 0 0 1 115 190)" fill="#EAEAEA"/>
<rect width="8" height="8" transform="matrix(-1 0 0 1 115 198)" fill="#EAEAEA"/>
<rect width="8" height="8" transform="matrix(-1 0 0 1 91 206)" fill="#EAEAEA"/>
<rect width="8" height="8" transform="matrix(-1 0 0 1 107 206)" fill="#EAEAEA"/>
<rect width="8" height="8" transform="matrix(-1 0 0 1 123 206)" fill="#EAEAEA"/>
<rect width="8" height="8" transform="matrix(-1 0 0 1 115 214)" fill="#EAEAEA"/>
<rect width="8" height="8" transform="matrix(-1 0 0 1 115 222)" fill="#EAEAEA"/>
<rect width="8" height="8" transform="matrix(-1 0 0 1 115 238)" fill="#EAEAEA"/>
<rect width="8" height="8" transform="matrix(-1 0 0 1 131 230)" fill="#EAEAEA"/>
<rect width="8" height="8" transform="matrix(-1 0 0 1 107 214)" fill="#EAEAEA"/>
<rect width="8" height="8" transform="matrix(-1 0 0 1 107 222)" fill="#EAEAEA"/>
<rect width="8" height="8" transform="matrix(-1 0 0 1 107 238)" fill="#EAEAEA"/>
<rect width="8" height="8" transform="matrix(-1 0 0 1 123 230)" fill="#EAEAEA"/>
<rect width="8" height="8" transform="matrix(-1 0 0 1 99 214)" fill="#EAEAEA"/>
<rect width="8" height="8" transform="matrix(-1 0 0 1 99 222)" fill="#EAEAEA"/>
<rect width="8" height="8" transform="matrix(-1 0 0 1 99 238)" fill="#EAEAEA"/>
<rect width="8" height="8" transform="matrix(-1 0 0 1 115 230)" fill="#EAEAEA"/>
<rect width="8" height="8" transform="matrix(-1 0 0 1 139 206)" fill="#EAEAEA"/>
<rect width="8" height="8" transform="matrix(-1 0 0 1 147 198)" fill="#EAEAEA"/>
<rect width="8" height="8" transform="matrix(-1 0 0 1 147 206)" fill="#EAEAEA"/>
<rect width="8" height="8" transform="matrix(-1 0 0 1 131 214)" fill="#EAEAEA"/>
<rect width="8" height="8" transform="matrix(-1 0 0 1 131 222)" fill="#EAEAEA"/>
<rect width="8" height="8" transform="matrix(-1 0 0 1 131 238)" fill="#EAEAEA"/>
<rect width="8" height="8" transform="matrix(-1 0 0 1 131 206)" fill="#EAEAEA"/>
<rect width="8" height="8" transform="matrix(-1 0 0 1 123 214)" fill="#EAEAEA"/>
<rect width="8" height="8" transform="matrix(-1 0 0 1 123 222)" fill="#EAEAEA"/>
<rect width="8" height="8" transform="matrix(-1 0 0 1 123 238)" fill="#EAEAEA"/>
<rect width="8" height="8" transform="matrix(-1 0 0 1 131 270)" fill="#EAEAEA"/>
<rect width="8" height="8" transform="matrix(-1 0 0 1 123 270)" fill="#EAEAEA"/>
<rect width="8" height="8" transform="matrix(-1 0 0 1 131 262)" fill="#EAEAEA"/>
<rect width="8" height="8" transform="matrix(-1 0 0 1 123 262)" fill="#EAEAEA"/>
<rect width="8" height="8" transform="matrix(-1 0 0 1 131 254)" fill="#EAEAEA"/>
<rect width="8" height="8" transform="matrix(-1 0 0 1 139 254)" fill="#EAEAEA"/>
<rect width="8" height="8" transform="matrix(-1 0 0 1 123 254)" fill="#EAEAEA"/>
<rect width="8" height="8" transform="matrix(-1 0 0 1 131 246)" fill="#EAEAEA"/>
<rect width="8" height="8" transform="matrix(-1 0 0 1 139 246)" fill="#EAEAEA"/>
<rect width="8" height="8" transform="matrix(-1 0 0 1 139 238)" fill="#EAEAEA"/>
<rect width="8" height="8" transform="matrix(-1 0 0 1 123 246)" fill="#EAEAEA"/>
<rect width="8" height="8" transform="matrix(-1 0 0 1 115 246)" fill="#EAEAEA"/>
<rect width="8" height="8" transform="matrix(-1 0 0 1 107 254)" fill="#EAEAEA"/>
<rect width="8" height="8" transform="matrix(-1 0 0 1 107 262)" fill="#EAEAEA"/>
<rect width="8" height="8" transform="matrix(-1 0 0 1 107 270)" fill="#EAEAEA"/>
<rect width="8" height="8" transform="matrix(-1 0 0 1 123 198)" fill="#EAEAEA"/>
<rect width="8" height="8" transform="matrix(-1 0 0 1 115 206)" fill="#999999"/>
<rect width="8" height="8" transform="matrix(-1 0 0 1 147 142)" fill="#AEAEAE"/>
<rect width="8" height="8" transform="matrix(-1 0 0 1 155 142)" fill="#AEAEAE"/>
<rect width="8" height="8" transform="matrix(-1 0 0 1 155 150)" fill="#AEAEAE"/>
<rect width="8" height="8" transform="matrix(-1 0 0 1 155 158)" fill="#AEAEAE"/>
<rect width="8" height="8" transform="matrix(-1 0 0 1 155 166)" fill="#AEAEAE"/>
<rect width="8" height="8" transform="matrix(-1 0 0 1 155 174)" fill="#AEAEAE"/>
<rect width="8" height="8" transform="matrix(-1 0 0 1 155 182)" fill="#AEAEAE"/>
<rect width="8" height="8" transform="matrix(-1 0 0 1 163 182)" fill="#AEAEAE"/>
<rect width="8" height="8" transform="matrix(-1 0 0 1 171 190)" fill="#AEAEAE"/>
<rect width="8" height="8" transform="matrix(-1 0 0 1 163 190)" fill="#AEAEAE"/>
<rect width="8" height="8" transform="matrix(-1 0 0 1 155 190)" fill="#AEAEAE"/>
<rect width="8" height="8" transform="matrix(-1 0 0 1 163 198)" fill="#AEAEAE"/>
<rect width="8" height="8" transform="matrix(-1 0 0 1 155 198)" fill="#AEAEAE"/>
<rect width="8" height="8" transform="matrix(-1 0 0 1 155 206)" fill="#AEAEAE"/>
<rect width="8" height="8" transform="matrix(-1 0 0 1 139 214)" fill="#AEAEAE"/>
<rect width="8" height="8" transform="matrix(-1 0 0 1 147 214)" fill="#AEAEAE"/>
<rect width="8" height="8" transform="matrix(-1 0 0 1 155 214)" fill="#AEAEAE"/>
<rect width="8" height="8" transform="matrix(-1 0 0 1 139 230)" fill="#AEAEAE"/>
<rect width="8" height="8" transform="matrix(-1 0 0 1 147 222)" fill="#AEAEAE"/>
<rect width="8" height="8" transform="matrix(-1 0 0 1 139 222)" fill="#AEAEAE"/>
<rect width="8" height="8" transform="matrix(-1 0 0 1 147 238)" fill="#AEAEAE"/>
<rect width="8" height="8" transform="matrix(-1 0 0 1 155 246)" fill="#AEAEAE"/>
<rect width="8" height="8" transform="matrix(-1 0 0 1 163 254)" fill="#AEAEAE"/>
<rect width="8" height="8" transform="matrix(-1 0 0 1 163 262)" fill="#AEAEAE"/>
<rect width="8" height="8" transform="matrix(-1 0 0 1 147 262)" fill="#AEAEAE"/>
<rect width="8" height="8" transform="matrix(-1 0 0 1 147 270)" fill="#AEAEAE"/>
<rect width="8" height="8" transform="matrix(-1 0 0 1 147 230)" fill="#AEAEAE"/>
<rect width="8" height="8" transform="matrix(-1 0 0 1 155 222)" fill="#AEAEAE"/>
<rect width="8" height="8" transform="matrix(-1 0 0 1 155 238)" fill="#AEAEAE"/>
<rect width="8" height="8" transform="matrix(-1 0 0 1 163 246)" fill="#AEAEAE"/>
<rect width="8" height="8" transform="matrix(-1 0 0 1 211 214)" fill="#AEAEAE"/>
<rect width="8" height="8" transform="matrix(-1 0 0 1 203 214)" fill="#AEAEAE"/>
<rect width="8" height="8" transform="matrix(-1 0 0 1 211 222)" fill="#AEAEAE"/>
<rect width="8" height="8" transform="matrix(-1 0 0 1 219 222)" fill="#AEAEAE"/>
<rect width="8" height="8" transform="matrix(-1 0 0 1 211 230)" fill="#AEAEAE"/>
<rect width="8" height="8" transform="matrix(-1 0 0 1 219 230)" fill="#AEAEAE"/>
<rect width="8" height="8" transform="matrix(-1 0 0 1 211 238)" fill="#AEAEAE"/>
<rect width="8" height="8" transform="matrix(-1 0 0 1 211 246)" fill="#797979"/>
<rect width="8" height="8" transform="matrix(-1 0 0 1 203 246)" fill="#797979"/>
<rect width="8" height="8" transform="matrix(-1 0 0 1 203 238)" fill="#797979"/>
<rect width="8" height="8" transform="matrix(-1 0 0 1 203 254)" fill="#797979"/>
<rect width="8" height="8" transform="matrix(-1 0 0 1 171 254)" fill="#AEAEAE"/>
<rect width="8" height="8" transform="matrix(-1 0 0 1 155 254)" fill="#AEAEAE"/>
<rect width="8" height="8" transform="matrix(-1 0 0 1 171 262)" fill="#AEAEAE"/>
<rect width="8" height="8" transform="matrix(-1 0 0 1 171 270)" fill="#AEAEAE"/>
<rect width="8" height="8" transform="matrix(-1 0 0 1 163 270)" fill="#AEAEAE"/>
<rect width="8" height="8" transform="matrix(-1 0 0 1 155 262)" fill="#AEAEAE"/>
<rect width="8" height="8" transform="matrix(-1 0 0 1 155 230)" fill="#AEAEAE"/>
<rect width="8" height="8" transform="matrix(-1 0 0 1 163 222)" fill="#AEAEAE"/>
<rect width="8" height="8" transform="matrix(-1 0 0 1 163 238)" fill="#AEAEAE"/>
<rect width="8" height="8" transform="matrix(-1 0 0 1 171 246)" fill="#AEAEAE"/>
<rect width="8" height="8" transform="matrix(-1 0 0 1 179 254)" fill="#AEAEAE"/>
<rect width="8" height="8" transform="matrix(-1 0 0 1 179 262)" fill="#AEAEAE"/>
<rect width="8" height="8" transform="matrix(-1 0 0 1 179 270)" fill="#AEAEAE"/>
<rect width="8" height="8" transform="matrix(-1 0 0 1 163 230)" fill="#AEAEAE"/>
<rect width="8" height="8" transform="matrix(-1 0 0 1 171 222)" fill="#AEAEAE"/>
<rect width="8" height="8" transform="matrix(-1 0 0 1 171 238)" fill="#AEAEAE"/>
<rect width="8" height="8" transform="matrix(-1 0 0 1 179 246)" fill="#AEAEAE"/>
<rect width="8" height="8" transform="matrix(-1 0 0 1 187 254)" fill="#AEAEAE"/>
<rect width="8" height="8" transform="matrix(-1 0 0 1 187 262)" fill="#AEAEAE"/>
<rect width="8" height="8" transform="matrix(-1 0 0 1 187 246)" fill="#AEAEAE"/>
<rect width="8" height="8" transform="matrix(-1 0 0 1 179 238)" fill="#AEAEAE"/>
<rect x="83" y="134" width="8" height="8" fill="#AEAEAE"/>
<rect width="8" height="8" transform="matrix(-1 0 0 1 147 134)" fill="#AEAEAE"/>
<rect x="99" y="150" width="8" height="8" fill="#747474"/>
<rect x="83" y="158" width="8" height="8" fill="#747474"/>
<rect x="115" y="150" width="8" height="8" fill="#6A6A6A"/>
<rect x="123" y="142" width="8" height="8" fill="#6A6A6A"/>
<rect x="131" y="134" width="8" height="8" fill="#6A6A6A"/>
<rect x="139" y="126" width="8" height="8" fill="#6A6A6A"/>
<rect x="147" y="134" width="8" height="8" fill="#6A6A6A"/>
<rect x="155" y="142" width="8" height="8" fill="#6A6A6A"/>
<rect x="155" y="150" width="8" height="8" fill="#6A6A6A"/>
<rect x="155" y="158" width="8" height="8" fill="#6A6A6A"/>
<rect x="187" y="214" width="8" height="8" fill="#6A6A6A"/>
<rect x="187" y="206" width="8" height="8" fill="#6A6A6A"/>
<rect x="203" y="182" width="8" height="8" fill="#6A6A6A"/>
<rect x="195" y="198" width="8" height="8" fill="#6A6A6A"/>
<rect x="195" y="190" width="8" height="8" fill="#6A6A6A"/>
<rect width="8" height="8" transform="matrix(-1 0 0 1 219 190)" fill="#EAEAEA"/>
<rect width="8" height="8" transform="matrix(-1 0 0 1 211 190)" fill="#EAEAEA"/>
<rect width="8" height="8" transform="matrix(-1 0 0 1 219 198)" fill="#EAEAEA"/>
<rect width="8" height="8" transform="matrix(-1 0 0 1 227 190)" fill="#EAEAEA"/>
<rect width="8" height="8" transform="matrix(-1 0 0 1 211 198)" fill="#EAEAEA"/>
<rect width="8" height="8" transform="matrix(-1 0 0 1 219 206)" fill="#EAEAEA"/>
<rect x="211" y="182" width="8" height="8" fill="#6A6A6A"/>
<rect x="219" y="182" width="8" height="8" fill="#6A6A6A"/>
<rect x="227" y="190" width="8" height="8" fill="#6A6A6A"/>
<rect x="219" y="198" width="8" height="8" fill="#6A6A6A"/>
<rect x="219" y="206" width="8" height="8" fill="#333333"/>
<rect x="219" y="214" width="8" height="8" fill="#333333"/>
<rect x="219" y="222" width="8" height="8" fill="#333333"/>
<rect x="211" y="238" width="8" height="8" fill="#333333"/>
<rect x="219" y="230" width="8" height="8" fill="#333333"/>
<rect x="211" y="246" width="8" height="8" fill="#333333"/>
<rect x="203" y="254" width="8" height="8" fill="#333333"/>
<rect x="195" y="262" width="8" height="8" fill="#333333"/>
<rect x="155" y="166" width="8" height="8" fill="#6A6A6A"/>
<rect x="195" y="222" width="8" height="8" fill="#6A6A6A"/>
<rect x="187" y="254" width="8" height="8" fill="#6A6A6A"/>
<rect x="155" y="174" width="8" height="8" fill="#6A6A6A"/>
<rect x="195" y="230" width="8" height="8" fill="#6A6A6A"/>
<rect x="187" y="262" width="8" height="8" fill="#6A6A6A"/>
<rect x="163" y="182" width="8" height="8" fill="#6A6A6A"/>
<rect x="171" y="190" width="8" height="8" fill="#6A6A6A"/>
<rect x="163" y="198" width="8" height="8" fill="#6A6A6A"/>
<rect x="155" y="214" width="8" height="8" fill="#6A6A6A"/>
<rect x="163" y="230" width="8" height="8" fill="#6A6A6A"/>
<rect x="131" y="270" width="8" height="8" fill="#6A6A6A"/>
<rect x="139" y="254" width="8" height="8" fill="#CDCDCD"/>
<rect x="147" y="270" width="8" height="8" fill="#CDCDCD"/>
<rect x="131" y="262" width="8" height="8" fill="#6A6A6A"/>
<rect x="139" y="246" width="8" height="8" fill="#CDCDCD"/>
<rect x="107" y="254" width="8" height="8" fill="#6A6A6A"/>
<rect x="99" y="246" width="8" height="8" fill="#6A6A6A"/>
<rect x="91" y="230" width="8" height="8" fill="#C8C8C8"/>
<rect x="99" y="230" width="8" height="8" fill="#C8C8C8"/>
<rect x="163" y="214" width="8" height="8" fill="#6A6A6A"/>
<rect x="171" y="230" width="8" height="8" fill="#6A6A6A"/>
<rect x="179" y="238" width="8" height="8" fill="#6A6A6A"/>
<rect x="75" y="142" width="8" height="8" fill="#6A6A6A"/>
<rect x="75" y="150" width="8" height="8" fill="#6A6A6A"/>
<rect x="75" y="158" width="8" height="8" fill="#6A6A6A"/>
<rect x="75" y="166" width="8" height="8" fill="#6A6A6A"/>
<rect x="67" y="182" width="8" height="8" fill="#6A6A6A"/>
<rect x="75" y="174" width="8" height="8" fill="#6A6A6A"/>
<rect x="67" y="190" width="8" height="8" fill="#6A6A6A"/>
</svg>
