<svg width="176" height="160" viewBox="0 0 176 160" fill="none" xmlns="http://www.w3.org/2000/svg">
<rect x="152" y="88" width="8" height="8" fill="#CDCDCD"/>
<rect x="144" y="80" width="8" height="8" fill="#CDCDCD"/>
<rect x="136" y="80" width="8" height="8" fill="#CDCDCD"/>
<rect x="16" y="8" width="8" height="8" fill="#6A6A6A"/>
<rect x="24" width="8" height="8" fill="#6A6A6A"/>
<rect x="32" y="8" width="8" height="8" fill="#6A6A6A"/>
<rect x="24" y="16" width="8" height="8" fill="#C67691"/>
<rect x="24" y="24" width="8" height="8" fill="#EAEAEA"/>
<rect x="72" y="32" width="8" height="8" fill="#EAEAEA"/>
<rect x="80" y="32" width="8" height="8" fill="#EAEAEA"/>
<rect x="80" y="40" width="8" height="8" fill="#EAEAEA"/>
<rect x="80" y="24" width="8" height="8" fill="#C67691"/>
<rect x="64" y="72" width="8" height="8" fill="#C67691"/>
<rect x="16" y="72" width="8" height="8" fill="#C67691"/>
<rect x="72" y="72" width="8" height="8" fill="#C67691"/>
<rect x="24" y="72" width="8" height="8" fill="#C67691"/>
<rect x="24" y="64" width="8" height="8" fill="#333333"/>
<rect y="72" width="8" height="8" fill="#333333"/>
<rect x="96" y="80" width="8" height="8" fill="#333333"/>
<rect x="104" y="88" width="8" height="8" fill="#333333"/>
<rect x="112" y="88" width="8" height="8" fill="#333333"/>
<rect x="112" y="96" width="8" height="8" fill="#333333"/>
<rect x="120" y="104" width="8" height="8" fill="#333333"/>
<rect x="128" y="112" width="8" height="8" fill="#333333"/>
<rect x="128" y="120" width="8" height="8" fill="#333333"/>
<rect x="8" y="80" width="8" height="8" fill="#333333"/>
<rect x="16" y="88" width="8" height="8" fill="#333333"/>
<rect x="24" y="88" width="8" height="8" fill="#333333"/>
<rect x="24" y="96" width="8" height="8" fill="#333333"/>
<rect x="32" y="112" width="8" height="8" fill="#333333"/>
<rect x="32" y="128" width="8" height="8" fill="#333333"/>
<rect x="24" y="104" width="8" height="8" fill="#333333"/>
<rect x="32" y="120" width="8" height="8" fill="#333333"/>
<rect x="32" y="136" width="8" height="8" fill="#333333"/>
<rect x="32" y="144" width="8" height="8" fill="#333333"/>
<rect x="40" y="152" width="8" height="8" fill="#333333"/>
<rect x="48" y="152" width="8" height="8" fill="#333333"/>
<rect x="48" y="144" width="8" height="8" fill="#333333"/>
<rect x="48" y="136" width="8" height="8" fill="#333333"/>
<rect x="56" y="152" width="8" height="8" fill="#333333"/>
<rect x="64" y="152" width="8" height="8" fill="#333333"/>
<rect x="72" y="152" width="8" height="8" fill="#333333"/>
<rect x="80" y="152" width="8" height="8" fill="#333333"/>
<rect x="88" y="152" width="8" height="8" fill="#333333"/>
<rect x="96" y="152" width="8" height="8" fill="#333333"/>
<rect x="104" y="152" width="8" height="8" fill="#333333"/>
<rect x="112" y="152" width="8" height="8" fill="#333333"/>
<rect x="120" y="144" width="8" height="8" fill="#333333"/>
<rect x="32" y="88" width="8" height="8" fill="#922623"/>
<rect x="40" y="88" width="8" height="8" fill="#922623"/>
<rect x="48" y="88" width="8" height="8" fill="#922623"/>
<rect x="56" y="88" width="8" height="8" fill="#922623"/>
<rect x="64" y="88" width="8" height="8" fill="#922623"/>
<rect x="72" y="88" width="8" height="8" fill="#922623"/>
<rect x="80" y="88" width="8" height="8" fill="#922623"/>
<rect x="96" y="88" width="8" height="8" fill="#922623"/>
<rect x="88" y="88" width="8" height="8" fill="#922623"/>
<rect x="56" y="64" width="8" height="8" fill="#333333"/>
<rect x="24" y="56" width="8" height="8" fill="#AEAEAE"/>
<rect x="56" y="56" width="8" height="8" fill="#AEAEAE"/>
<rect x="40" y="16" width="8" height="8" fill="#6A6A6A"/>
<rect x="48" y="24" width="8" height="8" fill="#6A6A6A"/>
<rect x="32" y="24" width="8" height="8" fill="#747474"/>
<rect x="32" y="16" width="8" height="8" fill="#AEAEAE"/>
<rect width="8" height="8" transform="matrix(-1 0 0 1 80 16)" fill="#AEAEAE"/>
<rect width="8" height="8" transform="matrix(-1 0 0 1 80 24)" fill="#AEAEAE"/>
<rect width="8" height="8" transform="matrix(-1 0 0 1 72 24)" fill="#AEAEAE"/>
<rect width="8" height="8" transform="matrix(-1 0 0 1 72 32)" fill="#AEAEAE"/>
<rect width="8" height="8" transform="matrix(-1 0 0 1 72 40)" fill="#AEAEAE"/>
<rect width="8" height="8" transform="matrix(-1 0 0 1 80 40)" fill="#AEAEAE"/>
<rect width="8" height="8" transform="matrix(-1 0 0 1 88 48)" fill="#AEAEAE"/>
<rect width="8" height="8" transform="matrix(-1 0 0 1 88 56)" fill="#AEAEAE"/>
<rect width="8" height="8" transform="matrix(-1 0 0 1 88 64)" fill="#AEAEAE"/>
<rect width="8" height="8" transform="matrix(-1 0 0 1 80 48)" fill="#AEAEAE"/>
<rect width="8" height="8" transform="matrix(-1 0 0 1 80 56)" fill="#AEAEAE"/>
<rect width="8" height="8" transform="matrix(-1 0 0 1 80 64)" fill="#AEAEAE"/>
<rect width="8" height="8" transform="matrix(-1 0 0 1 72 48)" fill="#AEAEAE"/>
<rect width="8" height="8" transform="matrix(-1 0 0 1 72 56)" fill="#AEAEAE"/>
<rect width="8" height="8" transform="matrix(-1 0 0 1 72 64)" fill="#AEAEAE"/>
<rect width="8" height="8" transform="matrix(-1 0 0 1 64 32)" fill="#AEAEAE"/>
<rect width="8" height="8" transform="matrix(-1 0 0 1 56 32)" fill="#AEAEAE"/>
<rect width="8" height="8" transform="matrix(-1 0 0 1 48 32)" fill="#AEAEAE"/>
<rect width="8" height="8" transform="matrix(-1 0 0 1 40 32)" fill="#AEAEAE"/>
<rect width="8" height="8" transform="matrix(-1 0 0 1 32 40)" fill="#AEAEAE"/>
<rect width="8" height="8" transform="matrix(-1 0 0 1 24 56)" fill="#AEAEAE"/>
<rect width="8" height="8" transform="matrix(-1 0 0 1 32 48)" fill="#AEAEAE"/>
<rect width="8" height="8" transform="matrix(-1 0 0 1 40 48)" fill="#AEAEAE"/>
<rect width="8" height="8" transform="matrix(-1 0 0 1 24 64)" fill="#AEAEAE"/>
<rect width="8" height="8" transform="matrix(-1 0 0 1 16 72)" fill="#AEAEAE"/>
<rect width="8" height="8" transform="matrix(-1 0 0 1 24 80)" fill="#AEAEAE"/>
<rect width="8" height="8" transform="matrix(-1 0 0 1 32 88)" fill="#AEAEAE"/>
<rect width="8" height="8" transform="matrix(-1 0 0 1 40 40)" fill="#AEAEAE"/>
<rect width="8" height="8" transform="matrix(-1 0 0 1 56 40)" fill="#AEAEAE"/>
<rect width="8" height="8" transform="matrix(-1 0 0 1 64 40)" fill="#AEAEAE"/>
<rect width="8" height="8" transform="matrix(-1 0 0 1 64 48)" fill="#AEAEAE"/>
<rect width="8" height="8" transform="matrix(-1 0 0 1 40 40)" fill="#CACACA"/>
<rect width="8" height="8" transform="matrix(-1 0 0 1 40 56)" fill="#EAEAEA"/>
<rect width="8" height="8" transform="matrix(-1 0 0 1 40 64)" fill="#EAEAEA"/>
<rect width="8" height="8" transform="matrix(-1 0 0 1 40 72)" fill="#EAEAEA"/>
<rect width="8" height="8" transform="matrix(-1 0 0 1 40 80)" fill="#999999"/>
<rect width="8" height="8" transform="matrix(-1 0 0 1 48 40)" fill="#CACACA"/>
<rect width="8" height="8" transform="matrix(-1 0 0 1 48 48)" fill="#EAEAEA"/>
<rect width="8" height="8" transform="matrix(-1 0 0 1 48 56)" fill="#EAEAEA"/>
<rect width="8" height="8" transform="matrix(-1 0 0 1 48 64)" fill="#EAEAEA"/>
<rect width="8" height="8" transform="matrix(-1 0 0 1 48 72)" fill="#999999"/>
<rect width="8" height="8" transform="matrix(-1 0 0 1 56 48)" fill="#CACACA"/>
<rect width="8" height="8" transform="matrix(-1 0 0 1 56 56)" fill="#EAEAEA"/>
<rect width="8" height="8" transform="matrix(-1 0 0 1 56 64)" fill="#EAEAEA"/>
<rect width="8" height="8" transform="matrix(-1 0 0 1 56 72)" fill="#EAEAEA"/>
<rect width="8" height="8" transform="matrix(-1 0 0 1 32 80)" fill="#EAEAEA"/>
<rect width="8" height="8" transform="matrix(-1 0 0 1 48 80)" fill="#EAEAEA"/>
<rect width="8" height="8" transform="matrix(-1 0 0 1 64 80)" fill="#EAEAEA"/>
<rect width="8" height="8" transform="matrix(-1 0 0 1 56 88)" fill="#EAEAEA"/>
<rect width="8" height="8" transform="matrix(-1 0 0 1 56 96)" fill="#EAEAEA"/>
<rect width="8" height="8" transform="matrix(-1 0 0 1 56 112)" fill="#EAEAEA"/>
<rect width="8" height="8" transform="matrix(-1 0 0 1 72 104)" fill="#EAEAEA"/>
<rect width="8" height="8" transform="matrix(-1 0 0 1 48 88)" fill="#EAEAEA"/>
<rect width="8" height="8" transform="matrix(-1 0 0 1 48 96)" fill="#EAEAEA"/>
<rect width="8" height="8" transform="matrix(-1 0 0 1 48 112)" fill="#EAEAEA"/>
<rect width="8" height="8" transform="matrix(-1 0 0 1 64 104)" fill="#EAEAEA"/>
<rect width="8" height="8" transform="matrix(-1 0 0 1 40 88)" fill="#EAEAEA"/>
<rect width="8" height="8" transform="matrix(-1 0 0 1 40 96)" fill="#EAEAEA"/>
<rect width="8" height="8" transform="matrix(-1 0 0 1 40 112)" fill="#EAEAEA"/>
<rect width="8" height="8" transform="matrix(-1 0 0 1 56 104)" fill="#EAEAEA"/>
<rect width="8" height="8" transform="matrix(-1 0 0 1 80 80)" fill="#EAEAEA"/>
<rect width="8" height="8" transform="matrix(-1 0 0 1 88 72)" fill="#EAEAEA"/>
<rect width="8" height="8" transform="matrix(-1 0 0 1 88 80)" fill="#EAEAEA"/>
<rect width="8" height="8" transform="matrix(-1 0 0 1 72 88)" fill="#EAEAEA"/>
<rect width="8" height="8" transform="matrix(-1 0 0 1 72 96)" fill="#EAEAEA"/>
<rect width="8" height="8" transform="matrix(-1 0 0 1 72 112)" fill="#EAEAEA"/>
<rect width="8" height="8" transform="matrix(-1 0 0 1 72 80)" fill="#EAEAEA"/>
<rect width="8" height="8" transform="matrix(-1 0 0 1 64 88)" fill="#EAEAEA"/>
<rect width="8" height="8" transform="matrix(-1 0 0 1 64 96)" fill="#EAEAEA"/>
<rect width="8" height="8" transform="matrix(-1 0 0 1 64 112)" fill="#EAEAEA"/>
<rect width="8" height="8" transform="matrix(-1 0 0 1 72 144)" fill="#EAEAEA"/>
<rect width="8" height="8" transform="matrix(-1 0 0 1 64 144)" fill="#EAEAEA"/>
<rect width="8" height="8" transform="matrix(-1 0 0 1 72 136)" fill="#EAEAEA"/>
<rect width="8" height="8" transform="matrix(-1 0 0 1 64 136)" fill="#EAEAEA"/>
<rect width="8" height="8" transform="matrix(-1 0 0 1 72 128)" fill="#EAEAEA"/>
<rect width="8" height="8" transform="matrix(-1 0 0 1 80 128)" fill="#EAEAEA"/>
<rect width="8" height="8" transform="matrix(-1 0 0 1 64 128)" fill="#EAEAEA"/>
<rect width="8" height="8" transform="matrix(-1 0 0 1 72 120)" fill="#EAEAEA"/>
<rect width="8" height="8" transform="matrix(-1 0 0 1 80 120)" fill="#EAEAEA"/>
<rect width="8" height="8" transform="matrix(-1 0 0 1 80 112)" fill="#EAEAEA"/>
<rect width="8" height="8" transform="matrix(-1 0 0 1 64 120)" fill="#EAEAEA"/>
<rect width="8" height="8" transform="matrix(-1 0 0 1 56 120)" fill="#EAEAEA"/>
<rect width="8" height="8" transform="matrix(-1 0 0 1 48 128)" fill="#EAEAEA"/>
<rect width="8" height="8" transform="matrix(-1 0 0 1 48 136)" fill="#EAEAEA"/>
<rect width="8" height="8" transform="matrix(-1 0 0 1 48 144)" fill="#EAEAEA"/>
<rect width="8" height="8" transform="matrix(-1 0 0 1 64 72)" fill="#EAEAEA"/>
<rect width="8" height="8" transform="matrix(-1 0 0 1 56 80)" fill="#999999"/>
<rect width="8" height="8" transform="matrix(-1 0 0 1 88 16)" fill="#AEAEAE"/>
<rect width="8" height="8" transform="matrix(-1 0 0 1 96 16)" fill="#AEAEAE"/>
<rect width="8" height="8" transform="matrix(-1 0 0 1 96 24)" fill="#AEAEAE"/>
<rect width="8" height="8" transform="matrix(-1 0 0 1 96 32)" fill="#AEAEAE"/>
<rect width="8" height="8" transform="matrix(-1 0 0 1 96 40)" fill="#AEAEAE"/>
<rect width="8" height="8" transform="matrix(-1 0 0 1 96 48)" fill="#AEAEAE"/>
<rect width="8" height="8" transform="matrix(-1 0 0 1 96 56)" fill="#AEAEAE"/>
<rect width="8" height="8" transform="matrix(-1 0 0 1 104 56)" fill="#AEAEAE"/>
<rect width="8" height="8" transform="matrix(-1 0 0 1 112 64)" fill="#AEAEAE"/>
<rect width="8" height="8" transform="matrix(-1 0 0 1 104 64)" fill="#AEAEAE"/>
<rect width="8" height="8" transform="matrix(-1 0 0 1 96 64)" fill="#AEAEAE"/>
<rect width="8" height="8" transform="matrix(-1 0 0 1 104 72)" fill="#AEAEAE"/>
<rect width="8" height="8" transform="matrix(-1 0 0 1 96 72)" fill="#AEAEAE"/>
<rect width="8" height="8" transform="matrix(-1 0 0 1 96 80)" fill="#AEAEAE"/>
<rect width="8" height="8" transform="matrix(-1 0 0 1 80 88)" fill="#AEAEAE"/>
<rect width="8" height="8" transform="matrix(-1 0 0 1 88 88)" fill="#AEAEAE"/>
<rect width="8" height="8" transform="matrix(-1 0 0 1 96 88)" fill="#AEAEAE"/>
<rect width="8" height="8" transform="matrix(-1 0 0 1 80 104)" fill="#AEAEAE"/>
<rect width="8" height="8" transform="matrix(-1 0 0 1 88 96)" fill="#AEAEAE"/>
<rect width="8" height="8" transform="matrix(-1 0 0 1 80 96)" fill="#AEAEAE"/>
<rect width="8" height="8" transform="matrix(-1 0 0 1 88 112)" fill="#AEAEAE"/>
<rect width="8" height="8" transform="matrix(-1 0 0 1 96 120)" fill="#AEAEAE"/>
<rect width="8" height="8" transform="matrix(-1 0 0 1 104 128)" fill="#AEAEAE"/>
<rect width="8" height="8" transform="matrix(-1 0 0 1 104 136)" fill="#AEAEAE"/>
<rect width="8" height="8" transform="matrix(-1 0 0 1 88 136)" fill="#AEAEAE"/>
<rect width="8" height="8" transform="matrix(-1 0 0 1 88 144)" fill="#AEAEAE"/>
<rect width="8" height="8" transform="matrix(-1 0 0 1 88 104)" fill="#AEAEAE"/>
<rect width="8" height="8" transform="matrix(-1 0 0 1 96 96)" fill="#AEAEAE"/>
<rect width="8" height="8" transform="matrix(-1 0 0 1 96 112)" fill="#AEAEAE"/>
<rect width="8" height="8" transform="matrix(-1 0 0 1 104 120)" fill="#AEAEAE"/>
<rect width="8" height="8" transform="matrix(-1 0 0 1 152 88)" fill="#AEAEAE"/>
<rect width="8" height="8" transform="matrix(-1 0 0 1 144 88)" fill="#AEAEAE"/>
<rect width="8" height="8" transform="matrix(-1 0 0 1 152 96)" fill="#AEAEAE"/>
<rect width="8" height="8" transform="matrix(-1 0 0 1 160 96)" fill="#AEAEAE"/>
<rect width="8" height="8" transform="matrix(-1 0 0 1 152 104)" fill="#AEAEAE"/>
<rect width="8" height="8" transform="matrix(-1 0 0 1 160 104)" fill="#AEAEAE"/>
<rect width="8" height="8" transform="matrix(-1 0 0 1 152 112)" fill="#AEAEAE"/>
<rect width="8" height="8" transform="matrix(-1 0 0 1 152 120)" fill="#797979"/>
<rect width="8" height="8" transform="matrix(-1 0 0 1 144 120)" fill="#797979"/>
<rect width="8" height="8" transform="matrix(-1 0 0 1 144 112)" fill="#797979"/>
<rect width="8" height="8" transform="matrix(-1 0 0 1 144 128)" fill="#797979"/>
<rect width="8" height="8" transform="matrix(-1 0 0 1 112 128)" fill="#AEAEAE"/>
<rect width="8" height="8" transform="matrix(-1 0 0 1 96 128)" fill="#AEAEAE"/>
<rect width="8" height="8" transform="matrix(-1 0 0 1 112 136)" fill="#AEAEAE"/>
<rect width="8" height="8" transform="matrix(-1 0 0 1 112 144)" fill="#AEAEAE"/>
<rect width="8" height="8" transform="matrix(-1 0 0 1 104 144)" fill="#AEAEAE"/>
<rect width="8" height="8" transform="matrix(-1 0 0 1 96 136)" fill="#AEAEAE"/>
<rect width="8" height="8" transform="matrix(-1 0 0 1 96 104)" fill="#AEAEAE"/>
<rect width="8" height="8" transform="matrix(-1 0 0 1 104 96)" fill="#AEAEAE"/>
<rect width="8" height="8" transform="matrix(-1 0 0 1 104 112)" fill="#AEAEAE"/>
<rect width="8" height="8" transform="matrix(-1 0 0 1 112 120)" fill="#AEAEAE"/>
<rect width="8" height="8" transform="matrix(-1 0 0 1 120 128)" fill="#AEAEAE"/>
<rect width="8" height="8" transform="matrix(-1 0 0 1 120 136)" fill="#AEAEAE"/>
<rect width="8" height="8" transform="matrix(-1 0 0 1 120 144)" fill="#AEAEAE"/>
<rect width="8" height="8" transform="matrix(-1 0 0 1 104 104)" fill="#AEAEAE"/>
<rect width="8" height="8" transform="matrix(-1 0 0 1 112 96)" fill="#AEAEAE"/>
<rect width="8" height="8" transform="matrix(-1 0 0 1 112 112)" fill="#AEAEAE"/>
<rect width="8" height="8" transform="matrix(-1 0 0 1 120 120)" fill="#AEAEAE"/>
<rect width="8" height="8" transform="matrix(-1 0 0 1 128 128)" fill="#AEAEAE"/>
<rect width="8" height="8" transform="matrix(-1 0 0 1 128 136)" fill="#AEAEAE"/>
<rect width="8" height="8" transform="matrix(-1 0 0 1 128 120)" fill="#AEAEAE"/>
<rect width="8" height="8" transform="matrix(-1 0 0 1 120 112)" fill="#AEAEAE"/>
<rect x="24" y="8" width="8" height="8" fill="#AEAEAE"/>
<rect width="8" height="8" transform="matrix(-1 0 0 1 88 8)" fill="#AEAEAE"/>
<rect x="40" y="24" width="8" height="8" fill="#747474"/>
<rect x="24" y="32" width="8" height="8" fill="#747474"/>
<rect x="56" y="24" width="8" height="8" fill="#6A6A6A"/>
<rect x="64" y="16" width="8" height="8" fill="#6A6A6A"/>
<rect x="72" y="8" width="8" height="8" fill="#6A6A6A"/>
<rect x="80" width="8" height="8" fill="#6A6A6A"/>
<rect x="88" y="8" width="8" height="8" fill="#6A6A6A"/>
<rect x="96" y="16" width="8" height="8" fill="#6A6A6A"/>
<rect x="96" y="24" width="8" height="8" fill="#6A6A6A"/>
<rect x="96" y="32" width="8" height="8" fill="#6A6A6A"/>
<rect x="128" y="88" width="8" height="8" fill="#6A6A6A"/>
<rect x="128" y="80" width="8" height="8" fill="#6A6A6A"/>
<rect x="144" y="56" width="8" height="8" fill="#6A6A6A"/>
<rect x="136" y="72" width="8" height="8" fill="#6A6A6A"/>
<rect x="136" y="64" width="8" height="8" fill="#6A6A6A"/>
<rect width="8" height="8" transform="matrix(-1 0 0 1 160 64)" fill="#EAEAEA"/>
<rect width="8" height="8" transform="matrix(-1 0 0 1 152 64)" fill="#EAEAEA"/>
<rect width="8" height="8" transform="matrix(-1 0 0 1 160 72)" fill="#EAEAEA"/>
<rect width="8" height="8" transform="matrix(-1 0 0 1 168 64)" fill="#EAEAEA"/>
<rect width="8" height="8" transform="matrix(-1 0 0 1 152 72)" fill="#EAEAEA"/>
<rect width="8" height="8" transform="matrix(-1 0 0 1 160 80)" fill="#EAEAEA"/>
<rect x="152" y="56" width="8" height="8" fill="#6A6A6A"/>
<rect x="160" y="56" width="8" height="8" fill="#6A6A6A"/>
<rect x="168" y="64" width="8" height="8" fill="#6A6A6A"/>
<rect x="160" y="72" width="8" height="8" fill="#6A6A6A"/>
<rect x="160" y="80" width="8" height="8" fill="#333333"/>
<rect x="160" y="88" width="8" height="8" fill="#333333"/>
<rect x="160" y="96" width="8" height="8" fill="#333333"/>
<rect x="152" y="112" width="8" height="8" fill="#333333"/>
<rect x="160" y="104" width="8" height="8" fill="#333333"/>
<rect x="152" y="120" width="8" height="8" fill="#333333"/>
<rect x="144" y="128" width="8" height="8" fill="#333333"/>
<rect x="136" y="136" width="8" height="8" fill="#333333"/>
<rect x="96" y="40" width="8" height="8" fill="#6A6A6A"/>
<rect x="136" y="96" width="8" height="8" fill="#6A6A6A"/>
<rect x="128" y="128" width="8" height="8" fill="#6A6A6A"/>
<rect x="96" y="48" width="8" height="8" fill="#6A6A6A"/>
<rect x="136" y="104" width="8" height="8" fill="#6A6A6A"/>
<rect x="128" y="136" width="8" height="8" fill="#6A6A6A"/>
<rect x="104" y="56" width="8" height="8" fill="#6A6A6A"/>
<rect x="112" y="64" width="8" height="8" fill="#6A6A6A"/>
<rect x="104" y="72" width="8" height="8" fill="#6A6A6A"/>
<rect x="96" y="88" width="8" height="8" fill="#6A6A6A"/>
<rect x="104" y="104" width="8" height="8" fill="#6A6A6A"/>
<rect x="72" y="144" width="8" height="8" fill="#6A6A6A"/>
<rect x="80" y="128" width="8" height="8" fill="#CDCDCD"/>
<rect x="88" y="144" width="8" height="8" fill="#CDCDCD"/>
<rect x="72" y="136" width="8" height="8" fill="#6A6A6A"/>
<rect x="80" y="120" width="8" height="8" fill="#CDCDCD"/>
<rect x="48" y="128" width="8" height="8" fill="#6A6A6A"/>
<rect x="40" y="120" width="8" height="8" fill="#6A6A6A"/>
<rect x="32" y="104" width="8" height="8" fill="#C8C8C8"/>
<rect x="40" y="104" width="8" height="8" fill="#C8C8C8"/>
<rect x="104" y="88" width="8" height="8" fill="#6A6A6A"/>
<rect x="112" y="104" width="8" height="8" fill="#6A6A6A"/>
<rect x="120" y="112" width="8" height="8" fill="#6A6A6A"/>
<rect x="16" y="16" width="8" height="8" fill="#6A6A6A"/>
<rect x="16" y="24" width="8" height="8" fill="#6A6A6A"/>
<rect x="16" y="32" width="8" height="8" fill="#6A6A6A"/>
<rect x="16" y="40" width="8" height="8" fill="#6A6A6A"/>
<rect x="8" y="56" width="8" height="8" fill="#6A6A6A"/>
<rect x="16" y="48" width="8" height="8" fill="#6A6A6A"/>
<rect x="8" y="64" width="8" height="8" fill="#6A6A6A"/>
</svg>
