<svg width="286" height="286" viewBox="0 0 286 286" fill="none" xmlns="http://www.w3.org/2000/svg">
<rect x="59" y="246" width="8" height="8" fill="#333333"/>
<rect x="59" y="254" width="8" height="8" fill="#333333"/>
<rect x="51" y="262" width="8" height="8" fill="#333333"/>
<rect x="51" y="270" width="8" height="8" fill="#333333"/>
<rect x="59" y="278" width="8" height="8" fill="#333333"/>
<rect x="67" y="278" width="8" height="8" fill="#333333"/>
<rect x="75" y="278" width="8" height="8" fill="#333333"/>
<rect x="83" y="278" width="8" height="8" fill="#333333"/>
<rect x="91" y="278" width="8" height="8" fill="#333333"/>
<rect x="91" y="270" width="8" height="8" fill="#333333"/>
<rect x="83" y="262" width="8" height="8" fill="#333333"/>
<rect x="99" y="262" width="8" height="8" fill="#333333"/>
<rect x="99" y="270" width="8" height="8" fill="#333333"/>
<rect x="99" y="278" width="8" height="8" fill="#333333"/>
<rect x="107" y="278" width="8" height="8" fill="#333333"/>
<rect x="115" y="278" width="8" height="8" fill="#333333"/>
<rect x="123" y="278" width="8" height="8" fill="#333333"/>
<rect x="131" y="278" width="8" height="8" fill="#333333"/>
<rect x="139" y="278" width="8" height="8" fill="#333333"/>
<rect x="147" y="278" width="8" height="8" fill="#333333"/>
<rect x="155" y="278" width="8" height="8" fill="#333333"/>
<rect x="163" y="278" width="8" height="8" fill="#333333"/>
<rect x="171" y="278" width="8" height="8" fill="#333333"/>
<rect x="179" y="278" width="8" height="8" fill="#333333"/>
<rect x="187" y="278" width="8" height="8" fill="#333333"/>
<rect x="195" y="278" width="8" height="8" fill="#333333"/>
<rect x="203" y="270" width="8" height="8" fill="#333333"/>
<rect x="203" y="262" width="8" height="8" fill="#333333"/>
<rect width="8" height="8" transform="matrix(-1 0 0 1 163 214)" fill="#CDCDCD"/>
<rect width="8" height="8" transform="matrix(-1 0 0 1 155 222)" fill="#CDCDCD"/>
<rect width="8" height="8" transform="matrix(-1 0 0 1 147 230)" fill="#CDCDCD"/>
<rect width="8" height="8" transform="matrix(-1 0 0 1 179 222)" fill="#AEAEAE"/>
<rect width="8" height="8" transform="matrix(-1 0 0 1 171 230)" fill="#AEAEAE"/>
<rect width="8" height="8" transform="matrix(-1 0 0 1 163 238)" fill="#AEAEAE"/>
<rect width="8" height="8" transform="matrix(-1 0 0 1 155 246)" fill="#AEAEAE"/>
<rect width="8" height="8" transform="matrix(-1 0 0 1 131 246)" fill="#AEAEAE"/>
<rect width="8" height="8" transform="matrix(-1 0 0 1 139 246)" fill="#AEAEAE"/>
<rect width="8" height="8" transform="matrix(-1 0 0 1 147 246)" fill="#AEAEAE"/>
<rect width="8" height="8" transform="matrix(-1 0 0 1 147 238)" fill="#AEAEAE"/>
<rect width="8" height="8" transform="matrix(-1 0 0 1 155 238)" fill="#AEAEAE"/>
<rect width="8" height="8" transform="matrix(-1 0 0 1 147 254)" fill="#AEAEAE"/>
<rect width="8" height="8" transform="matrix(-1 0 0 1 139 262)" fill="#AEAEAE"/>
<rect width="8" height="8" transform="matrix(-1 0 0 1 131 270)" fill="#AEAEAE"/>
<rect width="8" height="8" transform="matrix(-1 0 0 1 187 238)" fill="#AEAEAE"/>
<rect width="8" height="8" transform="matrix(-1 0 0 1 179 246)" fill="#AEAEAE"/>
<rect width="8" height="8" transform="matrix(-1 0 0 1 171 254)" fill="#CDCDCD"/>
<rect width="8" height="8" transform="matrix(-1 0 0 1 163 262)" fill="#AEAEAE"/>
<rect width="8" height="8" transform="matrix(-1 0 0 1 155 270)" fill="#CDCDCD"/>
<rect width="8" height="8" transform="matrix(-1 0 0 1 179 270)" fill="#AEAEAE"/>
<rect width="8" height="8" transform="matrix(-1 0 0 1 187 262)" fill="#AEAEAE"/>
<rect width="8" height="8" transform="matrix(-1 0 0 1 195 254)" fill="#AEAEAE"/>
<rect width="8" height="8" transform="matrix(-1 0 0 1 123 254)" fill="#AEAEAE"/>
<rect width="8" height="8" transform="matrix(-1 0 0 1 99 254)" fill="#EAEAEA"/>
<rect width="8" height="8" transform="matrix(-1 0 0 1 75 254)" fill="#EAEAEA"/>
<rect width="8" height="8" transform="matrix(-1 0 0 1 67 262)" fill="#AEAEAE"/>
<rect width="8" height="8" transform="matrix(-1 0 0 1 67 270)" fill="#AEAEAE"/>
<rect width="8" height="8" transform="matrix(-1 0 0 1 115 262)" fill="#CDCDCD"/>
<rect width="8" height="8" transform="matrix(-1 0 0 1 115 270)" fill="#CDCDCD"/>
<rect width="8" height="8" transform="matrix(-1 0 0 1 171 214)" fill="#CDCDCD"/>
<rect width="8" height="8" transform="matrix(-1 0 0 1 163 222)" fill="#AEAEAE"/>
<rect width="8" height="8" transform="matrix(-1 0 0 1 155 230)" fill="#AEAEAE"/>
<rect width="8" height="8" transform="matrix(-1 0 0 1 187 222)" fill="#AEAEAE"/>
<rect width="8" height="8" transform="matrix(-1 0 0 1 179 230)" fill="#EAEAEA"/>
<rect width="8" height="8" transform="matrix(-1 0 0 1 171 238)" fill="#AEAEAE"/>
<rect width="8" height="8" transform="matrix(-1 0 0 1 163 246)" fill="#AEAEAE"/>
<rect width="8" height="8" transform="matrix(-1 0 0 1 155 254)" fill="#AEAEAE"/>
<rect width="8" height="8" transform="matrix(-1 0 0 1 147 262)" fill="#AEAEAE"/>
<rect width="8" height="8" transform="matrix(-1 0 0 1 139 270)" fill="#AEAEAE"/>
<rect width="8" height="8" transform="matrix(-1 0 0 1 195 238)" fill="#AEAEAE"/>
<rect width="8" height="8" transform="matrix(-1 0 0 1 187 246)" fill="#AEAEAE"/>
<rect x="195" y="246" width="8" height="8" fill="#6A6A6A"/>
<rect x="203" y="246" width="8" height="8" fill="#6A6A6A"/>
<rect x="203" y="238" width="8" height="8" fill="#6A6A6A"/>
<rect x="187" y="230" width="8" height="8" fill="#6A6A6A"/>
<rect x="195" y="230" width="8" height="8" fill="#6A6A6A"/>
<rect width="8" height="8" transform="matrix(-1 0 0 1 179 254)" fill="#AEAEAE"/>
<rect width="8" height="8" transform="matrix(-1 0 0 1 171 262)" fill="#AEAEAE"/>
<rect width="8" height="8" transform="matrix(-1 0 0 1 163 270)" fill="#AEAEAE"/>
<rect width="8" height="8" transform="matrix(-1 0 0 1 187 270)" fill="#AEAEAE"/>
<rect width="8" height="8" transform="matrix(-1 0 0 1 195 262)" fill="#AEAEAE"/>
<rect width="8" height="8" transform="matrix(-1 0 0 1 203 254)" fill="#AEAEAE"/>
<rect width="8" height="8" transform="matrix(-1 0 0 1 131 254)" fill="#AEAEAE"/>
<rect width="8" height="8" transform="matrix(-1 0 0 1 107 254)" fill="#EAEAEA"/>
<rect width="8" height="8" transform="matrix(-1 0 0 1 83 254)" fill="#EAEAEA"/>
<rect width="8" height="8" transform="matrix(-1 0 0 1 75 262)" fill="#AEAEAE"/>
<rect width="8" height="8" transform="matrix(-1 0 0 1 75 270)" fill="#AEAEAE"/>
<rect width="8" height="8" transform="matrix(-1 0 0 1 123 262)" fill="#AEAEAE"/>
<rect width="8" height="8" transform="matrix(-1 0 0 1 123 270)" fill="#AEAEAE"/>
<rect width="8" height="8" transform="matrix(-1 0 0 1 179 214)" fill="#AEAEAE"/>
<rect width="8" height="8" transform="matrix(-1 0 0 1 171 222)" fill="#EAEAEA"/>
<rect width="8" height="8" transform="matrix(-1 0 0 1 163 230)" fill="#AEAEAE"/>
<rect width="8" height="8" transform="matrix(-1 0 0 1 195 222)" fill="#AEAEAE"/>
<rect width="8" height="8" transform="matrix(-1 0 0 1 187 230)" fill="#AEAEAE"/>
<rect width="8" height="8" transform="matrix(-1 0 0 1 179 238)" fill="#AEAEAE"/>
<rect width="8" height="8" transform="matrix(-1 0 0 1 171 246)" fill="#AEAEAE"/>
<rect width="8" height="8" transform="matrix(-1 0 0 1 163 254)" fill="#CDCDCD"/>
<rect width="8" height="8" transform="matrix(-1 0 0 1 155 262)" fill="#CDCDCD"/>
<rect width="8" height="8" transform="matrix(-1 0 0 1 147 270)" fill="#AEAEAE"/>
<rect width="8" height="8" transform="matrix(-1 0 0 1 203 238)" fill="#AEAEAE"/>
<rect width="8" height="8" transform="matrix(-1 0 0 1 195 246)" fill="#AEAEAE"/>
<rect width="8" height="8" transform="matrix(-1 0 0 1 187 254)" fill="#AEAEAE"/>
<rect width="8" height="8" transform="matrix(-1 0 0 1 179 262)" fill="#AEAEAE"/>
<rect width="8" height="8" transform="matrix(-1 0 0 1 171 270)" fill="#AEAEAE"/>
<rect width="8" height="8" transform="matrix(-1 0 0 1 195 270)" fill="#AEAEAE"/>
<rect width="8" height="8" transform="matrix(-1 0 0 1 203 262)" fill="#AEAEAE"/>
<rect width="8" height="8" transform="matrix(-1 0 0 1 211 254)" fill="#AEAEAE"/>
<rect width="8" height="8" transform="matrix(-1 0 0 1 139 254)" fill="#AEAEAE"/>
<rect width="8" height="8" transform="matrix(-1 0 0 1 115 254)" fill="#AEAEAE"/>
<rect width="8" height="8" transform="matrix(-1 0 0 1 91 254)" fill="#EAEAEA"/>
<rect width="8" height="8" transform="matrix(-1 0 0 1 83 262)" fill="#EAEAEA"/>
<rect width="8" height="8" transform="matrix(-1 0 0 1 83 270)" fill="#AEAEAE"/>
<rect width="8" height="8" transform="matrix(-1 0 0 1 131 262)" fill="#AEAEAE"/>
<rect width="8" height="8" transform="matrix(-1 0 0 1 99 262)" fill="#EAEAEA"/>
<rect width="8" height="8" transform="matrix(-1 0 0 1 91 270)" fill="#EAEAEA"/>
<rect x="155" y="206" width="8" height="8" fill="#6A6A6A"/>
<rect x="163" y="206" width="8" height="8" fill="#6A6A6A"/>
<rect x="171" y="206" width="8" height="8" fill="#6A6A6A"/>
<rect x="179" y="214" width="8" height="8" fill="#6A6A6A"/>
<rect x="187" y="214" width="8" height="8" fill="#6A6A6A"/>
<rect x="195" y="222" width="8" height="8" fill="#6A6A6A"/>
<rect x="203" y="230" width="8" height="8" fill="#333333"/>
<rect x="211" y="238" width="8" height="8" fill="#333333"/>
<rect x="211" y="246" width="8" height="8" fill="#6A6A6A"/>
<rect x="211" y="254" width="8" height="8" fill="#6A6A6A"/>
<rect x="195" y="270" width="8" height="8" fill="#6A6A6A"/>
<rect x="235" y="198" width="8" height="8" fill="#CDCDCD"/>
<rect x="227" y="190" width="8" height="8" fill="#CDCDCD"/>
<rect x="211" y="222" width="8" height="8" fill="#333333"/>
<rect x="211" y="230" width="8" height="8" fill="#333333"/>
<rect width="8" height="8" transform="matrix(-1 0 0 1 235 198)" fill="#AEAEAE"/>
<rect width="8" height="8" transform="matrix(-1 0 0 1 235 206)" fill="#AEAEAE"/>
<rect width="8" height="8" transform="matrix(-1 0 0 1 243 206)" fill="#AEAEAE"/>
<rect width="8" height="8" transform="matrix(-1 0 0 1 235 214)" fill="#AEAEAE"/>
<rect width="8" height="8" transform="matrix(-1 0 0 1 243 214)" fill="#AEAEAE"/>
<rect width="8" height="8" transform="matrix(-1 0 0 1 235 222)" fill="#AEAEAE"/>
<rect width="8" height="8" transform="matrix(-1 0 0 1 235 230)" fill="#797979"/>
<rect width="8" height="8" transform="matrix(-1 0 0 1 227 230)" fill="#797979"/>
<rect width="8" height="8" transform="matrix(-1 0 0 1 227 222)" fill="#797979"/>
<rect width="8" height="8" transform="matrix(-1 0 0 1 227 238)" fill="#797979"/>
<rect x="219" y="198" width="8" height="8" fill="#6A6A6A"/>
<rect x="219" y="190" width="8" height="8" fill="#6A6A6A"/>
<rect x="211" y="182" width="8" height="8" fill="#6A6A6A"/>
<rect x="211" y="174" width="8" height="8" fill="#6A6A6A"/>
<rect width="8" height="8" transform="matrix(-1 0 0 1 227 174)" fill="#EAEAEA"/>
<rect width="8" height="8" transform="matrix(-1 0 0 1 227 182)" fill="#EAEAEA"/>
<rect width="8" height="8" transform="matrix(-1 0 0 1 243 182)" fill="#EAEAEA"/>
<rect width="8" height="8" transform="matrix(-1 0 0 1 235 174)" fill="#EAEAEA"/>
<rect width="8" height="8" transform="matrix(-1 0 0 1 235 182)" fill="#EAEAEA"/>
<rect width="8" height="8" transform="matrix(-1 0 0 1 243 190)" fill="#EAEAEA"/>
<rect x="219" y="166" width="8" height="8" fill="#6A6A6A"/>
<rect x="227" y="166" width="8" height="8" fill="#6A6A6A"/>
<rect x="235" y="174" width="8" height="8" fill="#6A6A6A"/>
<rect x="243" y="182" width="8" height="8" fill="#6A6A6A"/>
<rect x="243" y="190" width="8" height="8" fill="#333333"/>
<rect x="243" y="198" width="8" height="8" fill="#333333"/>
<rect x="243" y="206" width="8" height="8" fill="#333333"/>
<rect x="235" y="222" width="8" height="8" fill="#333333"/>
<rect x="243" y="214" width="8" height="8" fill="#333333"/>
<rect x="235" y="230" width="8" height="8" fill="#333333"/>
<rect x="227" y="238" width="8" height="8" fill="#333333"/>
<rect x="219" y="246" width="8" height="8" fill="#333333"/>
<rect x="219" y="206" width="8" height="8" fill="#6A6A6A"/>
<rect x="219" y="214" width="8" height="8" fill="#6A6A6A"/>
<rect x="139" y="270" width="8" height="8" fill="#333333"/>
<rect x="139" y="262" width="8" height="8" fill="#333333"/>
<rect x="147" y="254" width="8" height="8" fill="#333333"/>
<rect x="155" y="246" width="8" height="8" fill="#333333"/>
<rect x="163" y="246" width="8" height="8" fill="#333333"/>
<rect x="51" y="166" width="8" height="8" fill="#6A6A6A"/>
<rect x="59" y="158" width="8" height="8" fill="#6A6A6A"/>
<rect x="67" y="166" width="8" height="8" fill="#6A6A6A"/>
<rect x="59" y="174" width="8" height="8" fill="#C67691"/>
<rect x="59" y="182" width="8" height="8" fill="#EAEAEA"/>
<rect x="107" y="190" width="8" height="8" fill="#EAEAEA"/>
<rect x="115" y="190" width="8" height="8" fill="#EAEAEA"/>
<rect x="115" y="198" width="8" height="8" fill="#EAEAEA"/>
<rect x="115" y="182" width="8" height="8" fill="#C67691"/>
<rect x="99" y="230" width="8" height="8" fill="#C67691"/>
<rect x="51" y="230" width="8" height="8" fill="#C67691"/>
<rect x="107" y="230" width="8" height="8" fill="#C67691"/>
<rect x="59" y="230" width="8" height="8" fill="#C67691"/>
<rect x="59" y="222" width="8" height="8" fill="#333333"/>
<rect x="35" y="230" width="8" height="8" fill="#333333"/>
<rect x="131" y="238" width="8" height="8" fill="#333333"/>
<rect x="43" y="238" width="8" height="8" fill="#333333"/>
<rect x="51" y="246" width="8" height="8" fill="#333333"/>
<rect x="67" y="254" width="8" height="8" fill="#922623"/>
<rect x="75" y="254" width="8" height="8" fill="#922623"/>
<rect x="83" y="254" width="8" height="8" fill="#922623"/>
<rect x="91" y="254" width="8" height="8" fill="#922623"/>
<rect x="99" y="254" width="8" height="8" fill="#922623"/>
<rect x="107" y="254" width="8" height="8" fill="#922623"/>
<rect x="115" y="254" width="8" height="8" fill="#922623"/>
<rect x="131" y="246" width="8" height="8" fill="#922623"/>
<rect x="123" y="246" width="8" height="8" fill="#922623"/>
<rect x="91" y="222" width="8" height="8" fill="#333333"/>
<rect x="59" y="214" width="8" height="8" fill="#AEAEAE"/>
<rect x="91" y="214" width="8" height="8" fill="#AEAEAE"/>
<rect x="75" y="174" width="8" height="8" fill="#6A6A6A"/>
<rect x="83" y="182" width="8" height="8" fill="#6A6A6A"/>
<rect x="67" y="182" width="8" height="8" fill="#747474"/>
<rect x="67" y="174" width="8" height="8" fill="#AEAEAE"/>
<rect width="8" height="8" transform="matrix(-1 0 0 1 115 174)" fill="#AEAEAE"/>
<rect width="8" height="8" transform="matrix(-1 0 0 1 115 182)" fill="#AEAEAE"/>
<rect width="8" height="8" transform="matrix(-1 0 0 1 107 182)" fill="#AEAEAE"/>
<rect width="8" height="8" transform="matrix(-1 0 0 1 107 190)" fill="#AEAEAE"/>
<rect width="8" height="8" transform="matrix(-1 0 0 1 107 198)" fill="#AEAEAE"/>
<rect width="8" height="8" transform="matrix(-1 0 0 1 115 198)" fill="#AEAEAE"/>
<rect width="8" height="8" transform="matrix(-1 0 0 1 123 206)" fill="#AEAEAE"/>
<rect width="8" height="8" transform="matrix(-1 0 0 1 123 214)" fill="#AEAEAE"/>
<rect width="8" height="8" transform="matrix(-1 0 0 1 123 222)" fill="#AEAEAE"/>
<rect width="8" height="8" transform="matrix(-1 0 0 1 115 206)" fill="#AEAEAE"/>
<rect width="8" height="8" transform="matrix(-1 0 0 1 115 214)" fill="#AEAEAE"/>
<rect width="8" height="8" transform="matrix(-1 0 0 1 115 222)" fill="#AEAEAE"/>
<rect width="8" height="8" transform="matrix(-1 0 0 1 107 206)" fill="#AEAEAE"/>
<rect width="8" height="8" transform="matrix(-1 0 0 1 107 214)" fill="#AEAEAE"/>
<rect width="8" height="8" transform="matrix(-1 0 0 1 107 222)" fill="#AEAEAE"/>
<rect width="8" height="8" transform="matrix(-1 0 0 1 99 190)" fill="#AEAEAE"/>
<rect width="8" height="8" transform="matrix(-1 0 0 1 91 190)" fill="#AEAEAE"/>
<rect width="8" height="8" transform="matrix(-1 0 0 1 83 190)" fill="#AEAEAE"/>
<rect width="8" height="8" transform="matrix(-1 0 0 1 75 190)" fill="#AEAEAE"/>
<rect width="8" height="8" transform="matrix(-1 0 0 1 67 198)" fill="#AEAEAE"/>
<rect width="8" height="8" transform="matrix(-1 0 0 1 59 214)" fill="#AEAEAE"/>
<rect width="8" height="8" transform="matrix(-1 0 0 1 67 206)" fill="#AEAEAE"/>
<rect width="8" height="8" transform="matrix(-1 0 0 1 59 222)" fill="#AEAEAE"/>
<rect width="8" height="8" transform="matrix(-1 0 0 1 51 230)" fill="#AEAEAE"/>
<rect width="8" height="8" transform="matrix(-1 0 0 1 59 238)" fill="#AEAEAE"/>
<rect width="8" height="8" transform="matrix(-1 0 0 1 67 246)" fill="#AEAEAE"/>
<rect width="8" height="8" transform="matrix(-1 0 0 1 75 198)" fill="#AEAEAE"/>
<rect width="8" height="8" transform="matrix(-1 0 0 1 91 198)" fill="#AEAEAE"/>
<rect width="8" height="8" transform="matrix(-1 0 0 1 99 198)" fill="#AEAEAE"/>
<rect width="8" height="8" transform="matrix(-1 0 0 1 99 206)" fill="#AEAEAE"/>
<rect width="8" height="8" transform="matrix(-1 0 0 1 75 206)" fill="#CACACA"/>
<rect width="8" height="8" transform="matrix(-1 0 0 1 75 214)" fill="#EAEAEA"/>
<rect width="8" height="8" transform="matrix(-1 0 0 1 75 222)" fill="#EAEAEA"/>
<rect width="8" height="8" transform="matrix(-1 0 0 1 75 230)" fill="#EAEAEA"/>
<rect width="8" height="8" transform="matrix(-1 0 0 1 75 238)" fill="#999999"/>
<rect width="8" height="8" transform="matrix(-1 0 0 1 83 198)" fill="#CACACA"/>
<rect width="8" height="8" transform="matrix(-1 0 0 1 83 206)" fill="#EAEAEA"/>
<rect width="8" height="8" transform="matrix(-1 0 0 1 83 214)" fill="#EAEAEA"/>
<rect width="8" height="8" transform="matrix(-1 0 0 1 83 222)" fill="#EAEAEA"/>
<rect width="8" height="8" transform="matrix(-1 0 0 1 83 230)" fill="#999999"/>
<rect width="8" height="8" transform="matrix(-1 0 0 1 91 206)" fill="#CACACA"/>
<rect width="8" height="8" transform="matrix(-1 0 0 1 91 214)" fill="#EAEAEA"/>
<rect width="8" height="8" transform="matrix(-1 0 0 1 91 222)" fill="#EAEAEA"/>
<rect width="8" height="8" transform="matrix(-1 0 0 1 91 230)" fill="#EAEAEA"/>
<rect width="8" height="8" transform="matrix(-1 0 0 1 67 238)" fill="#EAEAEA"/>
<rect width="8" height="8" transform="matrix(-1 0 0 1 83 238)" fill="#EAEAEA"/>
<rect width="8" height="8" transform="matrix(-1 0 0 1 99 238)" fill="#EAEAEA"/>
<rect width="8" height="8" transform="matrix(-1 0 0 1 91 246)" fill="#EAEAEA"/>
<rect width="8" height="8" transform="matrix(-1 0 0 1 83 246)" fill="#EAEAEA"/>
<rect width="8" height="8" transform="matrix(-1 0 0 1 75 246)" fill="#EAEAEA"/>
<rect width="8" height="8" transform="matrix(-1 0 0 1 115 238)" fill="#EAEAEA"/>
<rect width="8" height="8" transform="matrix(-1 0 0 1 115 246)" fill="#AEAEAE"/>
<rect width="8" height="8" transform="matrix(-1 0 0 1 123 230)" fill="#EAEAEA"/>
<rect width="8" height="8" transform="matrix(-1 0 0 1 123 238)" fill="#EAEAEA"/>
<rect width="8" height="8" transform="matrix(-1 0 0 1 123 246)" fill="#AEAEAE"/>
<rect width="8" height="8" transform="matrix(-1 0 0 1 107 246)" fill="#EAEAEA"/>
<rect width="8" height="8" transform="matrix(-1 0 0 1 107 238)" fill="#EAEAEA"/>
<rect width="8" height="8" transform="matrix(-1 0 0 1 99 246)" fill="#EAEAEA"/>
<rect width="8" height="8" transform="matrix(-1 0 0 1 99 230)" fill="#EAEAEA"/>
<rect width="8" height="8" transform="matrix(-1 0 0 1 91 238)" fill="#999999"/>
<rect width="8" height="8" transform="matrix(-1 0 0 1 123 174)" fill="#AEAEAE"/>
<rect width="8" height="8" transform="matrix(-1 0 0 1 131 174)" fill="#AEAEAE"/>
<rect width="8" height="8" transform="matrix(-1 0 0 1 131 182)" fill="#AEAEAE"/>
<rect width="8" height="8" transform="matrix(-1 0 0 1 131 190)" fill="#AEAEAE"/>
<rect width="8" height="8" transform="matrix(-1 0 0 1 131 198)" fill="#AEAEAE"/>
<rect width="8" height="8" transform="matrix(-1 0 0 1 131 206)" fill="#AEAEAE"/>
<rect width="8" height="8" transform="matrix(-1 0 0 1 131 214)" fill="#AEAEAE"/>
<rect width="8" height="8" transform="matrix(-1 0 0 1 139 214)" fill="#AEAEAE"/>
<rect width="8" height="8" transform="matrix(-1 0 0 1 147 222)" fill="#AEAEAE"/>
<rect width="8" height="8" transform="matrix(-1 0 0 1 139 222)" fill="#AEAEAE"/>
<rect width="8" height="8" transform="matrix(-1 0 0 1 131 222)" fill="#AEAEAE"/>
<rect width="8" height="8" transform="matrix(-1 0 0 1 139 230)" fill="#AEAEAE"/>
<rect width="8" height="8" transform="matrix(-1 0 0 1 131 230)" fill="#AEAEAE"/>
<rect width="8" height="8" transform="matrix(-1 0 0 1 131 238)" fill="#AEAEAE"/>
<rect x="59" y="166" width="8" height="8" fill="#AEAEAE"/>
<rect width="8" height="8" transform="matrix(-1 0 0 1 123 166)" fill="#AEAEAE"/>
<rect x="75" y="182" width="8" height="8" fill="#747474"/>
<rect x="59" y="190" width="8" height="8" fill="#747474"/>
<rect x="91" y="182" width="8" height="8" fill="#6A6A6A"/>
<rect x="99" y="174" width="8" height="8" fill="#6A6A6A"/>
<rect x="107" y="166" width="8" height="8" fill="#6A6A6A"/>
<rect x="115" y="158" width="8" height="8" fill="#6A6A6A"/>
<rect x="123" y="166" width="8" height="8" fill="#6A6A6A"/>
<rect x="131" y="174" width="8" height="8" fill="#6A6A6A"/>
<rect x="131" y="182" width="8" height="8" fill="#6A6A6A"/>
<rect x="131" y="190" width="8" height="8" fill="#6A6A6A"/>
<rect x="131" y="198" width="8" height="8" fill="#6A6A6A"/>
<rect x="131" y="206" width="8" height="8" fill="#6A6A6A"/>
<rect x="139" y="214" width="8" height="8" fill="#6A6A6A"/>
<rect x="147" y="222" width="8" height="8" fill="#6A6A6A"/>
<rect x="139" y="230" width="8" height="8" fill="#6A6A6A"/>
<rect x="51" y="174" width="8" height="8" fill="#6A6A6A"/>
<rect x="51" y="182" width="8" height="8" fill="#6A6A6A"/>
<rect x="51" y="190" width="8" height="8" fill="#6A6A6A"/>
<rect x="51" y="198" width="8" height="8" fill="#6A6A6A"/>
<rect x="43" y="214" width="8" height="8" fill="#6A6A6A"/>
<rect x="51" y="206" width="8" height="8" fill="#6A6A6A"/>
<rect x="43" y="222" width="8" height="8" fill="#6A6A6A"/>
</svg>
