<svg width="286" height="286" viewBox="0 0 286 286" fill="none" xmlns="http://www.w3.org/2000/svg">
<rect x="211" y="214" width="8" height="8" fill="#EA9FB8"/>
<rect x="203" y="206" width="8" height="8" fill="#EA9FB8"/>
<rect x="195" y="206" width="8" height="8" fill="#EA9FB8"/>
<rect x="75" y="126" width="8" height="8" fill="#B4627E"/>
<rect x="83" y="118" width="8" height="8" fill="#B4627E"/>
<rect x="91" y="126" width="8" height="8" fill="#B4627E"/>
<rect x="83" y="134" width="8" height="8" fill="#C67691"/>
<rect x="83" y="142" width="8" height="8" fill="#FAD4E1"/>
<rect x="131" y="150" width="8" height="8" fill="#FAD4E1"/>
<rect x="139" y="150" width="8" height="8" fill="#FAD4E1"/>
<rect x="139" y="158" width="8" height="8" fill="#FAD4E1"/>
<rect x="139" y="142" width="8" height="8" fill="#C67691"/>
<rect x="123" y="190" width="8" height="8" fill="#C67691"/>
<rect x="75" y="190" width="8" height="8" fill="#C67691"/>
<rect x="131" y="190" width="8" height="8" fill="#C67691"/>
<rect x="83" y="190" width="8" height="8" fill="#C67691"/>
<rect x="83" y="182" width="8" height="8" fill="#68253C"/>
<rect x="59" y="190" width="8" height="8" fill="#68253C"/>
<rect x="155" y="198" width="8" height="8" fill="#68253C"/>
<rect x="163" y="206" width="8" height="8" fill="#68253C"/>
<rect x="171" y="214" width="8" height="8" fill="#68253C"/>
<rect x="171" y="222" width="8" height="8" fill="#68253C"/>
<rect x="179" y="230" width="8" height="8" fill="#68253C"/>
<rect x="187" y="238" width="8" height="8" fill="#68253C"/>
<rect x="187" y="246" width="8" height="8" fill="#68253C"/>
<rect x="67" y="198" width="8" height="8" fill="#68253C"/>
<rect x="75" y="206" width="8" height="8" fill="#68253C"/>
<rect x="83" y="214" width="8" height="8" fill="#68253C"/>
<rect x="83" y="222" width="8" height="8" fill="#68253C"/>
<rect x="91" y="238" width="8" height="8" fill="#68253C"/>
<rect x="91" y="254" width="8" height="8" fill="#68253C"/>
<rect x="83" y="230" width="8" height="8" fill="#68253C"/>
<rect x="91" y="246" width="8" height="8" fill="#68253C"/>
<rect x="91" y="262" width="8" height="8" fill="#68253C"/>
<rect x="91" y="270" width="8" height="8" fill="#68253C"/>
<rect x="99" y="278" width="8" height="8" fill="#68253C"/>
<rect x="107" y="278" width="8" height="8" fill="#68253C"/>
<rect x="107" y="270" width="8" height="8" fill="#68253C"/>
<rect x="107" y="262" width="8" height="8" fill="#68253C"/>
<rect x="115" y="278" width="8" height="8" fill="#68253C"/>
<rect x="123" y="278" width="8" height="8" fill="#68253C"/>
<rect x="131" y="278" width="8" height="8" fill="#68253C"/>
<rect x="139" y="278" width="8" height="8" fill="#68253C"/>
<rect x="147" y="278" width="8" height="8" fill="#68253C"/>
<rect x="155" y="278" width="8" height="8" fill="#68253C"/>
<rect x="163" y="278" width="8" height="8" fill="#68253C"/>
<rect x="171" y="278" width="8" height="8" fill="#68253C"/>
<rect x="179" y="270" width="8" height="8" fill="#68253C"/>
<rect x="91" y="214" width="8" height="8" fill="#922623"/>
<rect x="99" y="214" width="8" height="8" fill="#922623"/>
<rect x="107" y="214" width="8" height="8" fill="#922623"/>
<rect x="115" y="214" width="8" height="8" fill="#922623"/>
<rect x="123" y="214" width="8" height="8" fill="#922623"/>
<rect x="131" y="214" width="8" height="8" fill="#922623"/>
<rect x="139" y="214" width="8" height="8" fill="#922623"/>
<rect x="155" y="206" width="8" height="8" fill="#922623"/>
<rect x="147" y="206" width="8" height="8" fill="#922623"/>
<rect x="115" y="182" width="8" height="8" fill="#68253C"/>
<rect x="83" y="174" width="8" height="8" fill="#68253C"/>
<rect x="115" y="174" width="8" height="8" fill="#68253C"/>
<rect x="99" y="134" width="8" height="8" fill="#B4627E"/>
<rect x="107" y="142" width="8" height="8" fill="#B4627E"/>
<rect x="91" y="142" width="8" height="8" fill="#93445F"/>
<rect x="91" y="134" width="8" height="8" fill="#EA9FB8"/>
<rect width="8" height="8" transform="matrix(-1 0 0 1 139 134)" fill="#EA9FB8"/>
<rect width="8" height="8" transform="matrix(-1 0 0 1 139 142)" fill="#EA9FB8"/>
<rect width="8" height="8" transform="matrix(-1 0 0 1 131 142)" fill="#EA9FB8"/>
<rect width="8" height="8" transform="matrix(-1 0 0 1 131 150)" fill="#EA9FB8"/>
<rect width="8" height="8" transform="matrix(-1 0 0 1 131 158)" fill="#EA9FB8"/>
<rect width="8" height="8" transform="matrix(-1 0 0 1 139 158)" fill="#EA9FB8"/>
<rect width="8" height="8" transform="matrix(-1 0 0 1 147 166)" fill="#EA9FB8"/>
<rect width="8" height="8" transform="matrix(-1 0 0 1 147 174)" fill="#EA9FB8"/>
<rect width="8" height="8" transform="matrix(-1 0 0 1 147 182)" fill="#EA9FB8"/>
<rect width="8" height="8" transform="matrix(-1 0 0 1 139 166)" fill="#EA9FB8"/>
<rect width="8" height="8" transform="matrix(-1 0 0 1 139 174)" fill="#EA9FB8"/>
<rect width="8" height="8" transform="matrix(-1 0 0 1 139 182)" fill="#EA9FB8"/>
<rect width="8" height="8" transform="matrix(-1 0 0 1 131 166)" fill="#EA9FB8"/>
<rect width="8" height="8" transform="matrix(-1 0 0 1 131 174)" fill="#EA9FB8"/>
<rect width="8" height="8" transform="matrix(-1 0 0 1 131 182)" fill="#EA9FB8"/>
<rect width="8" height="8" transform="matrix(-1 0 0 1 123 150)" fill="#EA9FB8"/>
<rect width="8" height="8" transform="matrix(-1 0 0 1 115 150)" fill="#EA9FB8"/>
<rect width="8" height="8" transform="matrix(-1 0 0 1 107 150)" fill="#EA9FB8"/>
<rect width="8" height="8" transform="matrix(-1 0 0 1 99 150)" fill="#EA9FB8"/>
<rect width="8" height="8" transform="matrix(-1 0 0 1 91 158)" fill="#EA9FB8"/>
<rect width="8" height="8" transform="matrix(-1 0 0 1 83 174)" fill="#EA9FB8"/>
<rect width="8" height="8" transform="matrix(-1 0 0 1 91 166)" fill="#EA9FB8"/>
<rect width="8" height="8" transform="matrix(-1 0 0 1 83 182)" fill="#EA9FB8"/>
<rect width="8" height="8" transform="matrix(-1 0 0 1 75 190)" fill="#EA9FB8"/>
<rect width="8" height="8" transform="matrix(-1 0 0 1 83 198)" fill="#EA9FB8"/>
<rect width="8" height="8" transform="matrix(-1 0 0 1 91 206)" fill="#EA9FB8"/>
<rect width="8" height="8" transform="matrix(-1 0 0 1 99 158)" fill="#EA9FB8"/>
<rect width="8" height="8" transform="matrix(-1 0 0 1 115 158)" fill="#EA9FB8"/>
<rect width="8" height="8" transform="matrix(-1 0 0 1 123 158)" fill="#EA9FB8"/>
<rect width="8" height="8" transform="matrix(-1 0 0 1 123 166)" fill="#EA9FB8"/>
<rect width="8" height="8" transform="matrix(-1 0 0 1 99 166)" fill="#F7A9C3"/>
<rect width="8" height="8" transform="matrix(-1 0 0 1 99 174)" fill="#FAD4E1"/>
<rect width="8" height="8" transform="matrix(-1 0 0 1 99 182)" fill="#FAD4E1"/>
<rect width="8" height="8" transform="matrix(-1 0 0 1 99 190)" fill="#FAD4E1"/>
<rect width="8" height="8" transform="matrix(-1 0 0 1 99 198)" fill="#B05876"/>
<rect width="8" height="8" transform="matrix(-1 0 0 1 107 158)" fill="#F7A9C3"/>
<rect width="8" height="8" transform="matrix(-1 0 0 1 107 166)" fill="#FAD4E1"/>
<rect width="8" height="8" transform="matrix(-1 0 0 1 107 174)" fill="#FAD4E1"/>
<rect width="8" height="8" transform="matrix(-1 0 0 1 107 182)" fill="#FAD4E1"/>
<rect width="8" height="8" transform="matrix(-1 0 0 1 107 190)" fill="#B05876"/>
<rect width="8" height="8" transform="matrix(-1 0 0 1 115 166)" fill="#F7A9C3"/>
<rect width="8" height="8" transform="matrix(-1 0 0 1 115 174)" fill="#FAD4E1"/>
<rect width="8" height="8" transform="matrix(-1 0 0 1 115 182)" fill="#FAD4E1"/>
<rect width="8" height="8" transform="matrix(-1 0 0 1 115 190)" fill="#FAD4E1"/>
<rect width="8" height="8" transform="matrix(-1 0 0 1 91 198)" fill="#FAD4E1"/>
<rect width="8" height="8" transform="matrix(-1 0 0 1 107 198)" fill="#FAD4E1"/>
<rect width="8" height="8" transform="matrix(-1 0 0 1 123 198)" fill="#FAD4E1"/>
<rect width="8" height="8" transform="matrix(-1 0 0 1 115 206)" fill="#FAD4E1"/>
<rect width="8" height="8" transform="matrix(-1 0 0 1 115 222)" fill="#FAD4E1"/>
<rect width="8" height="8" transform="matrix(-1 0 0 1 115 238)" fill="#FAD4E1"/>
<rect width="8" height="8" transform="matrix(-1 0 0 1 131 230)" fill="#FAD4E1"/>
<rect width="8" height="8" transform="matrix(-1 0 0 1 107 206)" fill="#FAD4E1"/>
<rect width="8" height="8" transform="matrix(-1 0 0 1 107 222)" fill="#FAD4E1"/>
<rect width="8" height="8" transform="matrix(-1 0 0 1 107 238)" fill="#FAD4E1"/>
<rect width="8" height="8" transform="matrix(-1 0 0 1 123 230)" fill="#FAD4E1"/>
<rect width="8" height="8" transform="matrix(-1 0 0 1 99 206)" fill="#FAD4E1"/>
<rect width="8" height="8" transform="matrix(-1 0 0 1 99 222)" fill="#FAD4E1"/>
<rect width="8" height="8" transform="matrix(-1 0 0 1 99 238)" fill="#FAD4E1"/>
<rect width="8" height="8" transform="matrix(-1 0 0 1 115 230)" fill="#FAD4E1"/>
<rect width="8" height="8" transform="matrix(-1 0 0 1 139 198)" fill="#FAD4E1"/>
<rect width="8" height="8" transform="matrix(-1 0 0 1 147 190)" fill="#FAD4E1"/>
<rect width="8" height="8" transform="matrix(-1 0 0 1 147 198)" fill="#FAD4E1"/>
<rect width="8" height="8" transform="matrix(-1 0 0 1 131 206)" fill="#FAD4E1"/>
<rect width="8" height="8" transform="matrix(-1 0 0 1 131 222)" fill="#FAD4E1"/>
<rect width="8" height="8" transform="matrix(-1 0 0 1 131 238)" fill="#FAD4E1"/>
<rect width="8" height="8" transform="matrix(-1 0 0 1 131 198)" fill="#FAD4E1"/>
<rect width="8" height="8" transform="matrix(-1 0 0 1 123 206)" fill="#FAD4E1"/>
<rect width="8" height="8" transform="matrix(-1 0 0 1 123 222)" fill="#FAD4E1"/>
<rect width="8" height="8" transform="matrix(-1 0 0 1 123 238)" fill="#FAD4E1"/>
<rect width="8" height="8" transform="matrix(-1 0 0 1 131 270)" fill="#FAD4E1"/>
<rect width="8" height="8" transform="matrix(-1 0 0 1 123 270)" fill="#FAD4E1"/>
<rect width="8" height="8" transform="matrix(-1 0 0 1 131 262)" fill="#FAD4E1"/>
<rect width="8" height="8" transform="matrix(-1 0 0 1 123 262)" fill="#FAD4E1"/>
<rect width="8" height="8" transform="matrix(-1 0 0 1 131 254)" fill="#FAD4E1"/>
<rect width="8" height="8" transform="matrix(-1 0 0 1 139 254)" fill="#FAD4E1"/>
<rect width="8" height="8" transform="matrix(-1 0 0 1 123 254)" fill="#FAD4E1"/>
<rect width="8" height="8" transform="matrix(-1 0 0 1 131 246)" fill="#FAD4E1"/>
<rect width="8" height="8" transform="matrix(-1 0 0 1 139 246)" fill="#FAD4E1"/>
<rect width="8" height="8" transform="matrix(-1 0 0 1 139 238)" fill="#FAD4E1"/>
<rect width="8" height="8" transform="matrix(-1 0 0 1 123 246)" fill="#FAD4E1"/>
<rect width="8" height="8" transform="matrix(-1 0 0 1 115 246)" fill="#FAD4E1"/>
<rect width="8" height="8" transform="matrix(-1 0 0 1 107 254)" fill="#FAD4E1"/>
<rect width="8" height="8" transform="matrix(-1 0 0 1 107 262)" fill="#FAD4E1"/>
<rect width="8" height="8" transform="matrix(-1 0 0 1 107 270)" fill="#FAD4E1"/>
<rect width="8" height="8" transform="matrix(-1 0 0 1 123 190)" fill="#FAD4E1"/>
<rect width="8" height="8" transform="matrix(-1 0 0 1 115 198)" fill="#B05876"/>
<rect width="8" height="8" transform="matrix(-1 0 0 1 147 134)" fill="#EA9FB8"/>
<rect width="8" height="8" transform="matrix(-1 0 0 1 155 134)" fill="#EA9FB8"/>
<rect width="8" height="8" transform="matrix(-1 0 0 1 155 142)" fill="#EA9FB8"/>
<rect width="8" height="8" transform="matrix(-1 0 0 1 155 150)" fill="#EA9FB8"/>
<rect width="8" height="8" transform="matrix(-1 0 0 1 155 158)" fill="#EA9FB8"/>
<rect width="8" height="8" transform="matrix(-1 0 0 1 155 166)" fill="#EA9FB8"/>
<rect width="8" height="8" transform="matrix(-1 0 0 1 155 174)" fill="#EA9FB8"/>
<rect width="8" height="8" transform="matrix(-1 0 0 1 163 174)" fill="#EA9FB8"/>
<rect width="8" height="8" transform="matrix(-1 0 0 1 171 182)" fill="#EA9FB8"/>
<rect width="8" height="8" transform="matrix(-1 0 0 1 163 182)" fill="#EA9FB8"/>
<rect width="8" height="8" transform="matrix(-1 0 0 1 155 182)" fill="#EA9FB8"/>
<rect width="8" height="8" transform="matrix(-1 0 0 1 163 190)" fill="#EA9FB8"/>
<rect width="8" height="8" transform="matrix(-1 0 0 1 155 190)" fill="#EA9FB8"/>
<rect width="8" height="8" transform="matrix(-1 0 0 1 155 198)" fill="#EA9FB8"/>
<rect width="8" height="8" transform="matrix(-1 0 0 1 139 206)" fill="#EA9FB8"/>
<rect width="8" height="8" transform="matrix(-1 0 0 1 147 206)" fill="#EA9FB8"/>
<rect width="8" height="8" transform="matrix(-1 0 0 1 155 214)" fill="#EA9FB8"/>
<rect width="8" height="8" transform="matrix(-1 0 0 1 139 230)" fill="#EA9FB8"/>
<rect width="8" height="8" transform="matrix(-1 0 0 1 147 222)" fill="#EA9FB8"/>
<rect width="8" height="8" transform="matrix(-1 0 0 1 139 222)" fill="#EA9FB8"/>
<rect width="8" height="8" transform="matrix(-1 0 0 1 147 238)" fill="#EA9FB8"/>
<rect width="8" height="8" transform="matrix(-1 0 0 1 155 246)" fill="#EA9FB8"/>
<rect width="8" height="8" transform="matrix(-1 0 0 1 163 254)" fill="#EA9FB8"/>
<rect width="8" height="8" transform="matrix(-1 0 0 1 163 262)" fill="#EA9FB8"/>
<rect width="8" height="8" transform="matrix(-1 0 0 1 147 262)" fill="#EA9FB8"/>
<rect width="8" height="8" transform="matrix(-1 0 0 1 147 270)" fill="#EA9FB8"/>
<rect width="8" height="8" transform="matrix(-1 0 0 1 147 230)" fill="#EA9FB8"/>
<rect width="8" height="8" transform="matrix(-1 0 0 1 155 222)" fill="#EA9FB8"/>
<rect width="8" height="8" transform="matrix(-1 0 0 1 155 238)" fill="#EA9FB8"/>
<rect width="8" height="8" transform="matrix(-1 0 0 1 163 246)" fill="#EA9FB8"/>
<rect width="8" height="8" transform="matrix(-1 0 0 1 211 214)" fill="#EA9FB8"/>
<rect width="8" height="8" transform="matrix(-1 0 0 1 203 214)" fill="#EA9FB8"/>
<rect width="8" height="8" transform="matrix(-1 0 0 1 211 222)" fill="#EA9FB8"/>
<rect width="8" height="8" transform="matrix(-1 0 0 1 219 222)" fill="#EA9FB8"/>
<rect width="8" height="8" transform="matrix(-1 0 0 1 211 230)" fill="#EA9FB8"/>
<rect width="8" height="8" transform="matrix(-1 0 0 1 219 230)" fill="#EA9FB8"/>
<rect width="8" height="8" transform="matrix(-1 0 0 1 211 238)" fill="#EA9FB8"/>
<rect width="8" height="8" transform="matrix(-1 0 0 1 211 246)" fill="#954661"/>
<rect width="8" height="8" transform="matrix(-1 0 0 1 203 246)" fill="#954661"/>
<rect width="8" height="8" transform="matrix(-1 0 0 1 203 238)" fill="#954661"/>
<rect width="8" height="8" transform="matrix(-1 0 0 1 203 254)" fill="#954661"/>
<rect width="8" height="8" transform="matrix(-1 0 0 1 171 254)" fill="#EA9FB8"/>
<rect width="8" height="8" transform="matrix(-1 0 0 1 155 254)" fill="#EA9FB8"/>
<rect width="8" height="8" transform="matrix(-1 0 0 1 171 262)" fill="#EA9FB8"/>
<rect width="8" height="8" transform="matrix(-1 0 0 1 171 270)" fill="#EA9FB8"/>
<rect width="8" height="8" transform="matrix(-1 0 0 1 163 270)" fill="#EA9FB8"/>
<rect width="8" height="8" transform="matrix(-1 0 0 1 155 262)" fill="#EA9FB8"/>
<rect width="8" height="8" transform="matrix(-1 0 0 1 155 230)" fill="#EA9FB8"/>
<rect width="8" height="8" transform="matrix(-1 0 0 1 163 222)" fill="#EA9FB8"/>
<rect width="8" height="8" transform="matrix(-1 0 0 1 163 238)" fill="#EA9FB8"/>
<rect width="8" height="8" transform="matrix(-1 0 0 1 171 246)" fill="#EA9FB8"/>
<rect width="8" height="8" transform="matrix(-1 0 0 1 179 254)" fill="#EA9FB8"/>
<rect width="8" height="8" transform="matrix(-1 0 0 1 179 262)" fill="#EA9FB8"/>
<rect width="8" height="8" transform="matrix(-1 0 0 1 179 270)" fill="#EA9FB8"/>
<rect width="8" height="8" transform="matrix(-1 0 0 1 163 230)" fill="#EA9FB8"/>
<rect width="8" height="8" transform="matrix(-1 0 0 1 171 222)" fill="#EA9FB8"/>
<rect width="8" height="8" transform="matrix(-1 0 0 1 171 238)" fill="#EA9FB8"/>
<rect width="8" height="8" transform="matrix(-1 0 0 1 179 246)" fill="#EA9FB8"/>
<rect width="8" height="8" transform="matrix(-1 0 0 1 187 254)" fill="#EA9FB8"/>
<rect width="8" height="8" transform="matrix(-1 0 0 1 187 262)" fill="#EA9FB8"/>
<rect width="8" height="8" transform="matrix(-1 0 0 1 187 246)" fill="#EA9FB8"/>
<rect width="8" height="8" transform="matrix(-1 0 0 1 179 238)" fill="#EA9FB8"/>
<rect x="83" y="126" width="8" height="8" fill="#EA9FB8"/>
<rect width="8" height="8" transform="matrix(-1 0 0 1 147 126)" fill="#EA9FB8"/>
<rect x="99" y="142" width="8" height="8" fill="#93445F"/>
<rect x="83" y="150" width="8" height="8" fill="#93445F"/>
<rect x="115" y="142" width="8" height="8" fill="#B4627E"/>
<rect x="123" y="134" width="8" height="8" fill="#B4627E"/>
<rect x="131" y="126" width="8" height="8" fill="#B4627E"/>
<rect x="139" y="118" width="8" height="8" fill="#B4627E"/>
<rect x="147" y="126" width="8" height="8" fill="#B4627E"/>
<rect x="155" y="134" width="8" height="8" fill="#B4627E"/>
<rect x="155" y="142" width="8" height="8" fill="#B4627E"/>
<rect x="155" y="150" width="8" height="8" fill="#B4627E"/>
<rect x="187" y="214" width="8" height="8" fill="#B4627E"/>
<rect x="187" y="206" width="8" height="8" fill="#B4627E"/>
<rect x="203" y="182" width="8" height="8" fill="#B4627E"/>
<rect x="195" y="198" width="8" height="8" fill="#B4627E"/>
<rect x="195" y="190" width="8" height="8" fill="#B4627E"/>
<rect width="8" height="8" transform="matrix(-1 0 0 1 219 190)" fill="#FAD4E1"/>
<rect width="8" height="8" transform="matrix(-1 0 0 1 211 190)" fill="#FAD4E1"/>
<rect width="8" height="8" transform="matrix(-1 0 0 1 219 198)" fill="#FAD4E1"/>
<rect width="8" height="8" transform="matrix(-1 0 0 1 227 190)" fill="#FAD4E1"/>
<rect width="8" height="8" transform="matrix(-1 0 0 1 211 198)" fill="#FAD4E1"/>
<rect width="8" height="8" transform="matrix(-1 0 0 1 219 206)" fill="#FAD4E1"/>
<rect x="211" y="182" width="8" height="8" fill="#B4627E"/>
<rect x="219" y="182" width="8" height="8" fill="#B4627E"/>
<rect x="227" y="190" width="8" height="8" fill="#B4627E"/>
<rect x="219" y="198" width="8" height="8" fill="#B4627E"/>
<rect x="219" y="206" width="8" height="8" fill="#68253C"/>
<rect x="219" y="214" width="8" height="8" fill="#68253C"/>
<rect x="219" y="222" width="8" height="8" fill="#68253C"/>
<rect x="211" y="238" width="8" height="8" fill="#68253C"/>
<rect x="219" y="230" width="8" height="8" fill="#68253C"/>
<rect x="211" y="246" width="8" height="8" fill="#68253C"/>
<rect x="203" y="254" width="8" height="8" fill="#68253C"/>
<rect x="195" y="262" width="8" height="8" fill="#68253C"/>
<rect x="155" y="158" width="8" height="8" fill="#B4627E"/>
<rect x="195" y="222" width="8" height="8" fill="#B4627E"/>
<rect x="187" y="254" width="8" height="8" fill="#B4627E"/>
<rect x="155" y="166" width="8" height="8" fill="#B4627E"/>
<rect x="195" y="230" width="8" height="8" fill="#B4627E"/>
<rect x="187" y="262" width="8" height="8" fill="#B4627E"/>
<rect x="163" y="174" width="8" height="8" fill="#B4627E"/>
<rect x="171" y="182" width="8" height="8" fill="#B4627E"/>
<rect x="163" y="190" width="8" height="8" fill="#B4627E"/>
<rect x="155" y="214" width="8" height="8" fill="#B4627E"/>
<rect x="163" y="230" width="8" height="8" fill="#B4627E"/>
<rect x="131" y="270" width="8" height="8" fill="#B4627E"/>
<rect x="139" y="254" width="8" height="8" fill="#EA9FB8"/>
<rect x="147" y="270" width="8" height="8" fill="#EA9FB8"/>
<rect x="131" y="262" width="8" height="8" fill="#B4627E"/>
<rect x="139" y="246" width="8" height="8" fill="#EA9FB8"/>
<rect x="107" y="254" width="8" height="8" fill="#B4627E"/>
<rect x="99" y="246" width="8" height="8" fill="#B4627E"/>
<rect x="91" y="230" width="8" height="8" fill="#D3839E"/>
<rect x="99" y="230" width="8" height="8" fill="#D3839E"/>
<rect x="163" y="214" width="8" height="8" fill="#B4627E"/>
<rect x="171" y="230" width="8" height="8" fill="#B4627E"/>
<rect x="179" y="238" width="8" height="8" fill="#B4627E"/>
<rect x="75" y="134" width="8" height="8" fill="#B4627E"/>
<rect x="75" y="142" width="8" height="8" fill="#B4627E"/>
<rect x="75" y="150" width="8" height="8" fill="#B4627E"/>
<rect x="75" y="158" width="8" height="8" fill="#B4627E"/>
<rect x="67" y="174" width="8" height="8" fill="#B4627E"/>
<rect x="75" y="166" width="8" height="8" fill="#B4627E"/>
<rect x="67" y="182" width="8" height="8" fill="#B4627E"/>
</svg>
